<?xml version="1.0" encoding="UTF-8"?>
<svg version="1.1" xmlns="http://www.w3.org/2000/svg" width="284" height="177">
<path d="M0 0 C93.72 0 187.44 0 284 0 C284 58.41 284 116.82 284 177 C190.28 177 96.56 177 0 177 C0 118.59 0 60.18 0 0 Z " fill="#F6F6F6" transform="translate(0,0)"/>
<path d="M0 0 C0.78117187 -0.03287109 1.56234375 -0.06574219 2.3671875 -0.09960938 C6.92110125 -0.14177524 10.11630327 0.28674106 13.54736328 3.62036133 C16.85401709 7.75673516 19.36129991 12.38891359 21.9375 17 C22.51951172 18.02158203 23.10152344 19.04316406 23.70117188 20.09570312 C24.87495228 22.15599321 26.04343529 24.21931053 27.20654297 26.28564453 C29.64907869 30.57820323 32.1793726 34.81755246 34.71704102 39.05444336 C36 41.4375 36 41.4375 36 43.4375 C38.64 43.4375 41.28 43.4375 44 43.4375 C44 45.7475 44 48.0575 44 50.4375 C46.31 50.4375 48.62 50.4375 51 50.4375 C51 48.1275 51 45.8175 51 43.4375 C49.02 43.4375 47.04 43.4375 45 43.4375 C43.75453595 40.94657189 44.2232422 40.02669267 45 37.4375 C47.97 36.9425 47.97 36.9425 51 36.4375 C51.33 38.7475 51.66 41.0575 52 43.4375 C53.32 43.1075 54.64 42.7775 56 42.4375 C56.33 40.4575 56.66 38.4775 57 36.4375 C55.35 36.4375 53.7 36.4375 52 36.4375 C52 34.4575 52 32.4775 52 30.4375 C52.99 29.9425 52.99 29.9425 54 29.4375 C53.67 28.7775 53.34 28.1175 53 27.4375 C53.66 27.4375 54.32 27.4375 55 27.4375 C54.67 25.4575 54.34 23.4775 54 21.4375 C53.34 21.4375 52.68 21.4375 52 21.4375 C51.7525 20.261875 51.505 19.08625 51.25 17.875 C50.4976289 14.80009204 49.50797043 12.33503604 47.875 9.625 C46 6.4375 46 6.4375 46 3.4375 C51.90180465 0.91007569 56.72494494 -0.08408535 63.125 -0.0625 C63.89714844 -0.09085938 64.66929687 -0.11921875 65.46484375 -0.1484375 C69.66914139 -0.16276219 71.64962438 0.21555388 75.29296875 2.5234375 C78.19051685 5.6425874 80.24119107 8.81486466 82.1875 12.5625 C82.95936938 13.99173341 83.73287971 15.42008151 84.5078125 16.84765625 C84.91032227 17.59547363 85.31283203 18.34329102 85.72753906 19.11376953 C87.47618349 22.30709219 89.31076057 25.44697471 91.15063477 28.58837891 C93.01114765 31.76633953 94.84774167 34.95778459 96.68212891 38.15087891 C97.54370991 39.64579697 98.41037088 41.13780173 99.28271484 42.62646484 C100.45703133 44.63684615 101.60634463 46.65956177 102.75 48.6875 C103.73226562 50.39679688 103.73226562 50.39679688 104.734375 52.140625 C106.26404056 56.12530935 106.10255796 58.34297857 105 62.4375 C103.27382361 65.00915054 101.41891742 66.41350787 99 68.4375 C98.34 68.4375 97.68 68.4375 97 68.4375 C97 69.0975 97 69.7575 97 70.4375 C94.10974343 72.78064534 91.15983084 74.99693004 88.15234375 77.18554688 C84.42441197 79.99494701 82.43742792 81.85520214 81 86.4375 C78.35103421 88.33932159 76.09454899 89.40598367 73 90.4375 C73.33 91.0975 73.66 91.7575 74 92.4375 C75.32 92.4375 76.64 92.4375 78 92.4375 C79 97.1875 79 97.1875 79 99.4375 C79.66 99.4375 80.32 99.4375 81 99.4375 C82.33783393 99.75228446 83.67203709 100.08337656 85 100.4375 C85 101.4275 85 102.4175 85 103.4375 C84.34 103.4375 83.68 103.4375 83 103.4375 C82.87625 104.05625 82.7525 104.675 82.625 105.3125 C82 107.4375 82 107.4375 80 109.4375 C79.75712511 111.87762949 79.75712511 111.87762949 79.875 114.5625 C79.91625 116.17125 79.9575 117.78 80 119.4375 C84.29 119.4375 88.58 119.4375 93 119.4375 C93 121.7475 93 124.0575 93 126.4375 C95.97 126.9325 95.97 126.9325 99 127.4375 C100.9775939 132.38148474 101.34413243 136.18948038 101 141.4375 C100.34 142.4275 99.68 143.4175 99 144.4375 C95.958395 144.80664349 95.958395 144.80664349 91.96395874 144.79826355 C91.23129402 144.80082682 90.4986293 144.8033901 89.74376261 144.80603105 C87.27605768 144.81099279 84.80895764 144.79443727 82.34130859 144.77807617 C80.57748936 144.77723041 78.81366908 144.77770404 77.04985046 144.77940369 C72.25044337 144.78026707 67.45125961 144.762586 62.65190458 144.74168181 C57.64039449 144.72297198 52.62887971 144.72116908 47.61734009 144.71760559 C38.12233629 144.70826835 28.62743569 144.6836319 19.1324774 144.65355712 C8.32491236 144.62006529 -2.48265752 144.60354025 -13.29026151 144.58847082 C-35.52689868 144.55708377 -57.76344285 144.50429071 -80 144.4375 C-80.94915817 140.32448127 -81.17118161 138.18772278 -79 134.4375 C-77.35666496 133.39960419 -75.68756133 132.40182076 -74 131.4375 C-73.46375 130.57125 -72.9275 129.705 -72.375 128.8125 C-69.06205569 125.49955569 -66.2640293 125.64368351 -61.70703125 125.41796875 C-58.70935031 125.43959704 -55.91529998 125.72837298 -53 126.4375 C-52.855625 125.468125 -52.71125 124.49875 -52.5625 123.5 C-52 120.4375 -52 120.4375 -51 119.4375 C-49.33388095 119.394779 -47.66617115 119.39686168 -46 119.4375 C-43.57202689 119.4375 -41.37092995 118.93664315 -39 118.4375 C-39.495 114.9725 -39.495 114.9725 -40 111.4375 C-40.99 111.1075 -41.98 110.7775 -43 110.4375 C-43.734375 107.70703125 -43.734375 107.70703125 -44 104.4375 C-42.515625 102.19921875 -42.515625 102.19921875 -40.25 100.125 C-39.41597656 99.35285156 -38.58195312 98.58070313 -37.72265625 97.78515625 C-34.17281084 94.7242422 -30.55643925 91.758625 -26.8984375 88.828125 C-22.70560489 85.3698857 -18.7460243 81.67831321 -14.76171875 77.984375 C-12.57803451 75.97056719 -10.37507947 74.00073477 -8.125 72.0625 C-6.74977973 70.85441737 -5.37482402 69.64603355 -4 68.4375 C-3.43361816 67.94958984 -2.86723633 67.46167969 -2.28369141 66.95898438 C-0.32021192 65.25959862 1.62175071 63.53777081 3.5625 61.8125 C4.20751465 61.26158691 4.8525293 60.71067383 5.51708984 60.14306641 C7.17977349 58.64642552 8.66248624 57.23061812 10 55.4375 C10.19960731 51.16590355 7.68853331 47.79790667 5.5625 44.1875 C5.0355957 43.28656616 5.0355957 43.28656616 4.49804688 42.36743164 C3.73766971 41.06944924 2.97404087 39.77336737 2.20751953 38.47900391 C0.97227231 36.39062192 -0.25131106 34.2957576 -1.47265625 32.19921875 C-2.31483275 30.7576539 -3.15728167 29.31624817 -4 27.875 C-4.41596436 27.162229 -4.83192871 26.44945801 -5.26049805 25.71508789 C-7.26736294 22.29822572 -9.31089172 18.92315953 -11.484375 15.609375 C-11.86722656 15.01842041 -12.25007813 14.42746582 -12.64453125 13.81860352 C-13.68236649 12.22861609 -14.73899678 10.65094183 -15.796875 9.07421875 C-17 6.4375 -17 6.4375 -16.578125 4.20703125 C-12.45379352 -0.41752855 -5.74892533 0.04269004 0 0 Z " fill="#F6F6F6" transform="translate(108,32.5625)"/>
<path d="M0 0 C0.77214844 -0.02835938 1.54429687 -0.05671875 2.33984375 -0.0859375 C6.54414139 -0.10026219 8.52462438 0.27805388 12.16796875 2.5859375 C15.06551685 5.7050874 17.11619107 8.87736466 19.0625 12.625 C19.83436938 14.05423341 20.60787971 15.48258151 21.3828125 16.91015625 C21.98657715 18.03188232 21.98657715 18.03188232 22.60253906 19.17626953 C24.35118349 22.36959219 26.18576057 25.50947471 28.02563477 28.65087891 C29.88614765 31.82883953 31.72274167 35.02028459 33.55712891 38.21337891 C34.41870991 39.70829697 35.28537088 41.20030173 36.15771484 42.68896484 C37.33203133 44.69934615 38.48134463 46.72206177 39.625 48.75 C40.60726562 50.45929688 40.60726562 50.45929688 41.609375 52.203125 C43.13904056 56.18780935 42.97755796 58.40547857 41.875 62.5 C40.14882361 65.07165054 38.29391742 66.47600787 35.875 68.5 C35.215 68.5 34.555 68.5 33.875 68.5 C33.875 69.16 33.875 69.82 33.875 70.5 C31.88889255 72.18008165 29.89046552 73.75279061 27.8125 75.3125 C22.55763452 79.34261789 17.47595079 83.50567906 12.5 87.875 C11.24119456 88.96520081 9.98207637 90.0550406 8.72265625 91.14453125 C6.76878359 92.83815346 4.828986 94.5417299 2.91357422 96.27880859 C-10.08687033 108.06737446 -20.47963292 111.9542388 -38.234375 111.93359375 C-41.38829761 111.46050536 -42.79900185 110.62840122 -45.125 108.5 C-44.67461562 103.8323801 -43.09096323 102.10937959 -39.5625 99.125 C-38.64855469 98.33996094 -37.73460937 97.55492187 -36.79296875 96.74609375 C-35.91253906 96.00488281 -35.03210938 95.26367188 -34.125 94.5 C-32.87278204 93.39834933 -31.6226024 92.29437501 -30.375 91.1875 C-27.94850035 89.067352 -25.50354686 86.97099282 -23.04296875 84.890625 C-15.97531329 78.90127507 -9.08855606 72.76896868 -2.36303711 66.39624023 C1.61315028 62.63560609 5.68737946 59.02381694 9.875 55.5 C9.287356 51.27205351 7.82563094 48.34383202 5.62890625 44.703125 C4.96052734 43.58679688 4.29214844 42.47046875 3.60351562 41.3203125 C3.24942627 40.73668945 2.89533691 40.15306641 2.53051758 39.55175781 C1.43084747 37.7390338 0.34024803 35.92113523 -0.74804688 34.1015625 C-2.86622365 30.56317399 -4.99473322 27.03112365 -7.125 23.5 C-9.1324349 20.17103675 -11.13249866 16.83791664 -13.125 13.5 C-13.53935303 12.81969727 -13.95370605 12.13939453 -14.38061523 11.43847656 C-17.125 6.83916303 -17.125 6.83916303 -17.125 3.5 C-11.22319535 0.97257569 -6.40005506 -0.02158535 0 0 Z " fill="#E8530E" transform="translate(171.125,32.5)"/>
<path d="M0 0 C0.78117187 -0.03287109 1.56234375 -0.06574219 2.3671875 -0.09960938 C6.94067221 -0.14195646 10.11651289 0.29684883 13.56054688 3.64672852 C16.78746086 7.6612153 19.23937625 12.14269319 21.75 16.625 C22.66144775 18.22118164 22.66144775 18.22118164 23.59130859 19.84960938 C25.40715294 23.03845586 27.20566667 26.23651043 29 29.4375 C29.76908691 30.7999585 29.76908691 30.7999585 30.55371094 32.18994141 C33.41027726 37.25050475 36.24753614 42.31951658 39 47.4375 C39.3825293 48.118125 39.76505859 48.79875 40.15917969 49.5 C42.36344494 53.58011237 43.83750868 56.68715077 43 61.4375 C41.41796875 63.67578125 41.41796875 63.67578125 39.1875 65.75 C37.94613281 66.91015625 37.94613281 66.91015625 36.6796875 68.09375 C33.19185086 71.14433598 29.63523751 74.09065931 26.01953125 76.98828125 C22.62366217 79.74275721 19.3095042 82.58047762 16 85.4375 C10.89741681 89.83135255 5.76098922 94.17387619 0.51953125 98.40234375 C-1.12365746 99.72963261 -2.75220377 101.07531906 -4.36328125 102.44140625 C-14.86152046 111.12647806 -26.72685471 112.10607324 -40 111.4375 C-40.99 111.1075 -41.98 110.7775 -43 110.4375 C-43.734375 107.70703125 -43.734375 107.70703125 -44 104.4375 C-42.515625 102.19921875 -42.515625 102.19921875 -40.25 100.125 C-39.41597656 99.35285156 -38.58195312 98.58070313 -37.72265625 97.78515625 C-34.17281084 94.7242422 -30.55643925 91.758625 -26.8984375 88.828125 C-22.70560489 85.3698857 -18.7460243 81.67831321 -14.76171875 77.984375 C-12.57803451 75.97056719 -10.37507947 74.00073477 -8.125 72.0625 C-6.74977973 70.85441737 -5.37482402 69.64603355 -4 68.4375 C-3.43361816 67.94958984 -2.86723633 67.46167969 -2.28369141 66.95898438 C-0.32021192 65.25959862 1.62175071 63.53777081 3.5625 61.8125 C4.20751465 61.26158691 4.8525293 60.71067383 5.51708984 60.14306641 C7.17977349 58.64642552 8.66248624 57.23061812 10 55.4375 C10.19960731 51.16590355 7.68853331 47.79790667 5.5625 44.1875 C5.21123047 43.58687744 4.85996094 42.98625488 4.49804688 42.36743164 C3.73766971 41.06944924 2.97404087 39.77336737 2.20751953 38.47900391 C0.97227231 36.39062192 -0.25131106 34.2957576 -1.47265625 32.19921875 C-2.31483275 30.7576539 -3.15728167 29.31624817 -4 27.875 C-4.41596436 27.162229 -4.83192871 26.44945801 -5.26049805 25.71508789 C-7.26736294 22.29822572 -9.31089172 18.92315953 -11.484375 15.609375 C-12.05865234 14.72294312 -12.05865234 14.72294312 -12.64453125 13.81860352 C-13.68236649 12.22861609 -14.73899678 10.65094183 -15.796875 9.07421875 C-17 6.4375 -17 6.4375 -16.578125 4.20703125 C-12.45379352 -0.41752855 -5.74892533 0.04269004 0 0 Z " fill="#1C3D50" transform="translate(108,32.5625)"/>
<path d="M0 0 C2.66356503 3.38164212 4.87182689 6.99104163 7.0625 10.6875 C7.44519043 11.33307861 7.82788086 11.97865723 8.22216797 12.64379883 C9.04416926 14.03053257 9.8657706 15.41750344 10.68701172 16.8046875 C12.05422282 19.0906604 13.44861272 21.35838785 14.84765625 23.625 C15.77361582 25.14572477 16.69940101 26.66655574 17.625 28.1875 C18.07496338 28.90574951 18.52492676 29.62399902 18.98852539 30.36401367 C22.05169482 35.44593921 22.05169482 35.44593921 21.79833984 38.16137695 C21.40316162 39.07149536 21.40316162 39.07149536 21 40 C20.01 40.33 19.02 40.66 18 41 C18 38.69 18 36.38 18 34 C16.35 34 14.7 34 13 34 C13 32.02 13 30.04 13 28 C10.53721199 26.768606 8.7204945 26.92840804 6 27 C6.061875 27.78375 6.12375 28.5675 6.1875 29.375 C6.0946875 30.674375 6.0946875 30.674375 6 32 C3 34 3 34 0 34 C-0.33 36.31 -0.66 38.62 -1 41 C-2.98 40.67 -4.96 40.34 -7 40 C-7 39.34 -7 38.68 -7 38 C-8.485 38.495 -8.485 38.495 -10 39 C-10.83819158 37.37750059 -11.6704116 35.75191503 -12.5 34.125 C-12.9640625 33.22007813 -13.428125 32.31515625 -13.90625 31.3828125 C-15 29 -15 29 -15 27 C-12.69 27 -10.38 27 -8 27 C-8 29.31 -8 31.62 -8 34 C-5.69 34 -3.38 34 -1 34 C-1 31.69 -1 29.38 -1 27 C-2.98 27 -4.96 27 -7 27 C-8.24546405 24.50907189 -7.7767578 23.58919267 -7 21 C-5.02 20.67 -3.04 20.34 -1 20 C-0.67 22.31 -0.34 24.62 0 27 C1.32 26.67 2.64 26.34 4 26 C4.33 24.02 4.66 22.04 5 20 C3.35 20 1.7 20 0 20 C0 18.02 0 16.04 0 14 C0.66 13.67 1.32 13.34 2 13 C1.67 12.34 1.34 11.68 1 11 C1.66 11 2.32 11 3 11 C2.67 9.02 2.34 7.04 2 5 C1.34 5 0.68 5 0 5 C0 3.35 0 1.7 0 0 Z " fill="#F4F1EC" transform="translate(160,49)"/>
<path d="M0 0 C0 0.66 0 1.32 0 2 C-1.65 2 -3.3 2 -5 2 C-4.72382467 3.94074861 -4.72382467 3.94074861 -4 6 C-3.01 6.66 -2.02 7.32 -1 8 C-1 8.99 -1 9.98 -1 11 C-3 11 -5 11 -7 11 C-7 10.34 -7 9.68 -7 9 C-8.03640625 9.05800781 -9.0728125 9.11601563 -10.140625 9.17578125 C-11.51037156 9.22269038 -12.88016692 9.26818932 -14.25 9.3125 C-15.27287109 9.3753418 -15.27287109 9.3753418 -16.31640625 9.43945312 C-20.16573306 9.53288339 -21.66494237 9.31830474 -24.5 6.625 C-26 4 -26 4 -25.75 1.6875 C-25.5025 1.130625 -25.255 0.57375 -25 0 C-24.01 0 -23.02 0 -22 0 C-22 0.99 -22 1.98 -22 3 C-21.34 2.67 -20.68 2.34 -20 2 C-20 1.01 -20 0.02 -20 -1 C-13.33927142 -3.22024286 -6.5170415 -2.26679704 0 0 Z " fill="#EC520B" transform="translate(183,37)"/>
<path d="M0 0 C-0.33 1.98 -0.66 3.96 -1 6 C0.65 6 2.3 6 4 6 C4.625 8.375 4.625 8.375 5 11 C4.34 11.66 3.68 12.32 3 13 C1.68 13 0.36 13 -1 13 C-1.66 11.02 -2.32 9.04 -3 7 C-3.99 7 -4.98 7 -6 7 C-6.66 8.98 -7.32 10.96 -8 13 C-9.98 13 -11.96 13 -14 13 C-14.33 14.98 -14.66 16.96 -15 19 C-18 20 -18 20 -21 19 C-21.73046875 16.93359375 -21.73046875 16.93359375 -22.1875 14.4375 C-22.34605469 13.61121094 -22.50460938 12.78492187 -22.66796875 11.93359375 C-22.77753906 11.29550781 -22.88710937 10.65742187 -23 10 C-22.34 10 -21.68 10 -21 10 C-21 10.66 -21 11.32 -21 12 C-18.03 12.495 -18.03 12.495 -15 13 C-14.67 10.69 -14.34 8.38 -14 6 C-13.195625 5.773125 -12.39125 5.54625 -11.5625 5.3125 C-10.716875 4.879375 -9.87125 4.44625 -9 4 C-8.10613836 1.45224694 -8.10613836 1.45224694 -8 -1 C-3.375 -2.25 -3.375 -2.25 0 0 Z " fill="#F8FCFB" transform="translate(174,77)"/>
<path d="M0 0 C0.99 0.33 1.98 0.66 3 1 C2.34 1.66 1.68 2.32 1 3 C1.33 3.99 1.66 4.98 2 6 C-1.625 9 -1.625 9 -5 9 C-5 11.31 -5 13.62 -5 16 C-7.31 16 -9.62 16 -12 16 C-12 18.31 -12 20.62 -12 23 C-14.31 23 -16.62 23 -19 23 C-19.33 21.02 -19.66 19.04 -20 17 C-21.32 17 -22.64 17 -24 17 C-24 16.34 -24 15.68 -24 15 C-25.65 15 -27.3 15 -29 15 C-29 14.67 -29 14.34 -29 14 C-27.96552734 13.85304687 -27.96552734 13.85304687 -26.91015625 13.703125 C-15.3859488 11.86936908 -8.37007123 8.15240981 0 0 Z " fill="#ECF0F2" transform="translate(109,129)"/>
<path d="M0 0 C0.77214844 -0.02835938 1.54429687 -0.05671875 2.33984375 -0.0859375 C6.32822724 -0.09952654 9.03044523 0.19167807 12.21484375 2.70703125 C14.66151604 5.27585751 16.53209734 7.63075673 18.3125 10.6875 C18.82683594 11.54730469 19.34117187 12.40710938 19.87109375 13.29296875 C20.20238281 14.02128906 20.53367188 14.74960937 20.875 15.5 C20.545 16.16 20.215 16.82 19.875 17.5 C18.49937146 16.21034824 17.16733607 14.87310707 15.875 13.5 C15.875 12.84 15.875 12.18 15.875 11.5 C13.235 11.5 10.595 11.5 7.875 11.5 C7.545 9.85 7.215 8.2 6.875 6.5 C8.525 6.5 10.175 6.5 11.875 6.5 C11.875 5.84 11.875 5.18 11.875 4.5 C5.3489925 3.36504217 -1.75328516 2.37609505 -8.125 4.5 C-8.125 5.49 -8.125 6.48 -8.125 7.5 C-8.785 7.5 -9.445 7.5 -10.125 7.5 C-10.125 6.51 -10.125 5.52 -10.125 4.5 C-11.115 4.83 -12.105 5.16 -13.125 5.5 C-12.55155063 8.36724686 -12.2635485 9.3614515 -10.125 11.5 C-6.73803191 18.27393617 -6.73803191 18.27393617 -8.125 22.5 C-9.63287377 19.90011448 -11.13145461 17.29559803 -12.625 14.6875 C-13.05425781 13.94951172 -13.48351562 13.21152344 -13.92578125 12.45117188 C-14.33183594 11.73896484 -14.73789063 11.02675781 -15.15625 10.29296875 C-15.72182617 9.31106567 -15.72182617 9.31106567 -16.29882812 8.30932617 C-17.125 6.5 -17.125 6.5 -17.125 3.5 C-11.22319535 0.97257569 -6.40005506 -0.02158535 0 0 Z " fill="#DB5717" transform="translate(171.125,32.5)"/>
<path d="M0 0 C1.65 0.66 3.3 1.32 5 2 C5 3.98 5 5.96 5 8 C6.98 7.67 8.96 7.34 11 7 C11.495 9.97 11.495 9.97 12 13 C10 14 8 15 6 16 C5.08854167 14.27473958 4.17708333 12.54947917 3.265625 10.82421875 C1.64251841 8.48474104 0.53796754 7.35962547 -2 6 C-4.92512567 5.58706343 -7.80111801 5.62726957 -10.75 5.6875 C-11.5234375 5.68427734 -12.296875 5.68105469 -13.09375 5.67773438 C-18.35942694 5.72632703 -22.9392637 6.54994884 -28 8 C-28 7.01 -28 6.02 -28 5 C-22.25515097 1.96221203 -15.724821 2.57770858 -9.39648438 2.43359375 C-8.47802734 2.40394531 -7.55957031 2.37429687 -6.61328125 2.34375 C-5.77579346 2.32505859 -4.93830566 2.30636719 -4.07543945 2.28710938 C-1.77996458 2.18232483 -1.77996458 2.18232483 0 0 Z " fill="#EEECEF" transform="translate(182,28)"/>
<path d="M0 0 C1.65 0 3.3 0 5 0 C-1.91199958 7.74981771 -10.57609953 9.59720408 -20.61328125 10.2265625 C-31.28247214 10.4703031 -31.28247214 10.4703031 -35 7 C-34.67 5.35 -34.34 3.7 -34 2 C-33.34 3.32 -32.68 4.64 -32 6 C-31.34 6 -30.68 6 -30 6 C-29.67 5.34 -29.34 4.68 -29 4 C-27.68 4 -26.36 4 -25 4 C-25 4.99 -25 5.98 -25 7 C-25.99 7 -26.98 7 -28 7 C-28 7.66 -28 8.32 -28 9 C-27.01773438 8.690625 -26.03546875 8.38125 -25.0234375 8.0625 C-20.22560512 6.689619 -15.38569154 6.26573501 -10.43359375 5.7890625 C-8.61413834 5.59107298 -6.80495204 5.30292901 -5 5 C-4.67 4.34 -4.34 3.68 -4 3 C-2.68 3 -1.36 3 0 3 C0 2.01 0 1.02 0 0 Z " fill="#D25B24" transform="translate(161,134)"/>
<path d="M0 0 C1.5625 1.1875 1.5625 1.1875 3 3 C3.17077936 6.07402849 2.36493306 7.5810673 0.36328125 9.87890625 C-1.38529554 11.63457666 -3.16387212 13.33645855 -5 15 C-5.33 14.34 -5.66 13.68 -6 13 C-6.66 13 -7.32 13 -8 13 C-8.33 13.99 -8.66 14.98 -9 16 C-9.99 15.34 -10.98 14.68 -12 14 C-12 13.34 -12 12.68 -12 12 C-11.34 12 -10.68 12 -10 12 C-10 11.34 -10 10.68 -10 10 C-10.66 9.67 -11.32 9.34 -12 9 C-9.69 9 -7.38 9 -5 9 C-4.9175 7.88625 -4.835 6.7725 -4.75 5.625 C-4 2 -4 2 -1.9375 0.5625 C-1.298125 0.376875 -0.65875 0.19125 0 0 Z " fill="#E6EBED" transform="translate(116,81)"/>
<path d="M0 0 C2.31 0 4.62 0 7 0 C7 2.31 7 4.62 7 7 C9.64 7 12.28 7 15 7 C14.67 9.31 14.34 11.62 14 14 C11.03 13.505 11.03 13.505 8 13 C8 12.34 8 11.68 8 11 C7.01 11.33 6.02 11.66 5 12 C4.16180842 10.37750059 3.3295884 8.75191503 2.5 7.125 C2.0359375 6.22007813 1.571875 5.31515625 1.09375 4.3828125 C0 2 0 2 0 0 Z " fill="#EAEFF0" transform="translate(145,76)"/>
<path d="M0 0 C1 1 1 1 1.0625 4.0625 C1.041875 5.031875 1.02125 6.00125 1 7 C2.65 7 4.3 7 6 7 C6 8.98 6 10.96 6 13 C4.35 13.33 2.7 13.66 1 14 C0.67 11.69 0.34 9.38 0 7 C-0.8971875 7.2784375 -0.8971875 7.2784375 -1.8125 7.5625 C-4 8 -4 8 -7 7 C-7 5.02 -7 3.04 -7 1 C-4.51588385 -0.24205807 -2.74800896 -0.14092354 0 0 Z " fill="#FCFBFC" transform="translate(159,62)"/>
<path d="M0 0 C1.32 0.33 2.64 0.66 4 1 C2.67548828 2.12535156 2.67548828 2.12535156 1.32421875 3.2734375 C-6.24159724 9.71972436 -13.69375586 16.26036255 -21 23 C-21.33 22.01 -21.66 21.02 -22 20 C-21.34 20 -20.68 20 -20 20 C-20 18.02 -20 16.04 -20 14 C-18.68 13.67 -17.36 13.34 -16 13 C-16 12.34 -16 11.68 -16 11 C-14.989375 10.608125 -13.97875 10.21625 -12.9375 9.8125 C-7.67883024 7.55725748 -3.19641567 4.7946235 0 0 Z " fill="#FAF3E3" transform="translate(152,111)"/>
<path d="M0 0 C4.09189762 1.36396587 4.61547327 3.34848983 6.6875 7.0625 C7.31011719 8.16722656 7.93273437 9.27195312 8.57421875 10.41015625 C9.04472656 11.26480469 9.51523438 12.11945313 10 13 C9.01 13.495 9.01 13.495 8 14 C7.34227572 17.02934491 7.34227572 17.02934491 7 20 C4.69 20 2.38 20 0 20 C0 17.69 0 15.38 0 13 C2.07553648 12.4465236 3.84365964 12 6 12 C6 11.34 6 10.68 6 10 C4.7934375 9.13375 4.7934375 9.13375 3.5625 8.25 C0.47676483 5.540574 0.27313136 4.00592666 0 0 Z " fill="#EFEEEF" transform="translate(104,63)"/>
<path d="M0 0 C0.78375 0.04125 1.5675 0.0825 2.375 0.125 C3.41949911 3.25849732 3.30923645 4.11468256 2.375 7.125 C0.065 7.125 -2.245 7.125 -4.625 7.125 C-4.75 4.75 -4.75 4.75 -4.625 2.125 C-2.625 0.125 -2.625 0.125 0 0 Z M-7.0625 7.0625 C-5.8559375 7.0934375 -5.8559375 7.0934375 -4.625 7.125 C-4.625 9.435 -4.625 11.745 -4.625 14.125 C-6.605 14.125 -8.585 14.125 -10.625 14.125 C-10.66754356 12.12545254 -10.66580783 10.12458364 -10.625 8.125 C-9.625 7.125 -9.625 7.125 -7.0625 7.0625 Z " fill="#EFEFEF" transform="translate(260.625,144.875)"/>
<path d="M0 0 C1.65 0 3.3 0 5 0 C5 2.31 5 4.62 5 7 C3.35 7 1.7 7 0 7 C-0.99 9.31 -1.98 11.62 -3 14 C-4.65 13.67 -6.3 13.34 -8 13 C-9 10 -9 10 -8 7 C-6.02 6.67 -4.04 6.34 -2 6 C-1.34 4.02 -0.68 2.04 0 0 Z " fill="#EFEFEF" transform="translate(57,97)"/>
<path d="M0 0 C2.48828125 0.93359375 2.48828125 0.93359375 4.0703125 3.1484375 C4.47636719 4.04691406 4.88242188 4.94539063 5.30078125 5.87109375 C5.71972656 6.76699219 6.13867188 7.66289063 6.5703125 8.5859375 C7.48828125 10.93359375 7.48828125 10.93359375 7.48828125 12.93359375 C5.11328125 13.05859375 5.11328125 13.05859375 2.48828125 12.93359375 C1.82828125 12.27359375 1.16828125 11.61359375 0.48828125 10.93359375 C0.48828125 9.61359375 0.48828125 8.29359375 0.48828125 6.93359375 C-1.49171875 6.27359375 -3.47171875 5.61359375 -5.51171875 4.93359375 C-5.51171875 3.94359375 -5.51171875 2.95359375 -5.51171875 1.93359375 C-2.51171875 -0.06640625 -2.51171875 -0.06640625 0 0 Z " fill="#F0EFE7" transform="translate(151.51171875,35.06640625)"/>
<path d="M0 0 C0 3.10551666 -0.5393715 4.35261084 -2 7 C-2.66 7 -3.32 7 -4 7 C-3.42415568 9.38564077 -2.77772405 11.66682784 -2 14 C-2.969375 13.71125 -3.93875 13.4225 -4.9375 13.125 C-8.79330587 12.5166044 -10.76362586 13.79312617 -13.9375 15.9375 C-15.30532293 16.93996121 -16.66432702 17.95508577 -18 19 C-18.66 18.67 -19.32 18.34 -20 18 C-6.3667426 5.33029613 -6.3667426 5.33029613 0 0 Z " fill="#D55B22" transform="translate(170,98)"/>
<path d="M0 0 C0.99 0.33 1.98 0.66 3 1 C3.144375 1.639375 3.28875 2.27875 3.4375 2.9375 C3.623125 3.618125 3.80875 4.29875 4 5 C5.99380846 6.14545927 5.99380846 6.14545927 8 7 C7.8864371 8.64666203 7.75882619 10.29236082 7.625 11.9375 C7.55539063 12.85402344 7.48578125 13.77054688 7.4140625 14.71484375 C7.27742187 15.46894531 7.14078125 16.22304687 7 17 C6.34 17.33 5.68 17.66 5 18 C5 18.66 5 19.32 5 20 C4.21625 20.0825 3.4325 20.165 2.625 20.25 C-0.14749104 20.72806339 -0.14749104 20.72806339 -1.3125 23.0625 C-1.539375 23.701875 -1.76625 24.34125 -2 25 C-3.32 24.67 -4.64 24.34 -6 24 C-5.34 24 -4.68 24 -4 24 C-4 23.34 -4 22.68 -4 22 C-2.88814573 21.06232656 -1.73478293 20.17343213 -0.5625 19.3125 C2.14727241 17.03232565 2.95081687 16.13719505 4.1875 12.6875 C3.94064271 7.83263994 2.247727 4.25428157 0 0 Z " fill="#FCEADC" transform="translate(209,79)"/>
<path d="M0 0 C2.6875 -0.3125 2.6875 -0.3125 5 0 C5 3 5 3 2.375 5.69921875 C1.25745974 6.70367458 0.13208967 7.69947129 -1 8.6875 C-1.57234375 9.19861328 -2.1446875 9.70972656 -2.734375 10.23632812 C-4.14967213 11.4983014 -5.57400269 12.75013033 -7 14 C-8.05078125 12.1328125 -8.05078125 12.1328125 -9 10 C-8.1875 7.875 -8.1875 7.875 -7 6 C-6.67 5.34 -6.34 4.68 -6 4 C-5.01 4.33 -4.02 4.66 -3 5 C-2.608125 4.175 -2.21625 3.35 -1.8125 2.5 C-1.214375 1.675 -0.61625 0.85 0 0 Z " fill="#DEE3E6" transform="translate(98,100)"/>
<path d="M0 0 C2.91367217 2.59892364 4.7535549 5.60046677 6.75 8.9375 C7.38421875 9.97777344 8.0184375 11.01804687 8.671875 12.08984375 C10 15 10 15 9.890625 17.31640625 C9 19 9 19 6 20 C6 17.69 6 15.38 6 13 C4.35 13 2.7 13 1 13 C1.020625 12.030625 1.04125 11.06125 1.0625 10.0625 C1.35618499 7.12534105 1.35618499 7.12534105 0 6 C-0.04080783 4.00041636 -0.04254356 1.99954746 0 0 Z " fill="#F7E7DC" transform="translate(172,70)"/>
<path d="M0 0 C0.82242188 0.01353516 1.64484375 0.02707031 2.4921875 0.04101562 C4.49508221 0.07594984 6.49763356 0.12973943 8.5 0.1875 C8.5 0.5175 8.5 0.8475 8.5 1.1875 C7.51 1.23648438 6.52 1.28546875 5.5 1.3359375 C-1.35523329 1.71153107 -7.89631865 2.16596489 -14.5 4.1875 C-13.42598892 7.10267292 -12.72189824 8.96560176 -10.5 11.1875 C-7.11303191 17.96143617 -7.11303191 17.96143617 -8.5 22.1875 C-10.00787377 19.58761448 -11.50645461 16.98309803 -13 14.375 C-13.42925781 13.63701172 -13.85851562 12.89902344 -14.30078125 12.13867188 C-14.70683594 11.42646484 -15.11289063 10.71425781 -15.53125 9.98046875 C-16.09682617 8.99856567 -16.09682617 8.99856567 -16.67382812 7.99682617 C-17.5 6.1875 -17.5 6.1875 -17.5 3.1875 C-11.40237981 0.52328751 -6.61470109 -0.21007601 0 0 Z " fill="#C16336" transform="translate(171.5,32.8125)"/>
<path d="M0 0 C1 3.875 1 3.875 1 5 C2.98 5.66 4.96 6.32 7 7 C6.67 8.65 6.34 10.3 6 12 C4.02 12 2.04 12 0 12 C-0.33 10.35 -0.66 8.7 -1 7 C-3.31 7.33 -5.62 7.66 -8 8 C-5.33333333 5.33333333 -2.66666667 2.66666667 0 0 Z " fill="#ECEDEE" transform="translate(146,98)"/>
<path d="M0 0 C1.41829102 -0.03673828 1.41829102 -0.03673828 2.86523438 -0.07421875 C9.81005843 -0.10366677 9.81005843 -0.10366677 13.08984375 2.3984375 C13.53457031 3.05070312 13.97929687 3.70296875 14.4375 4.375 C13.4475 4.375 12.4575 4.375 11.4375 4.375 C11.1075 4.045 10.7775 3.715 10.4375 3.375 C7.57195883 3.2467812 4.74113128 3.1897693 1.875 3.1875 C1.08802734 3.17525391 0.30105469 3.16300781 -0.50976562 3.15039062 C-5.85853519 3.13716201 -10.42363967 3.8857312 -15.5625 5.375 C-15.5625 4.385 -15.5625 3.395 -15.5625 2.375 C-10.57655564 -0.27146728 -5.49819305 0.00752662 0 0 Z " fill="#FDE4CD" transform="translate(169.5625,30.625)"/>
<path d="M0 0 C0.33 0.99 0.66 1.98 1 3 C-4.625 6.875 -4.625 6.875 -8 8 C-7.67 8.66 -7.34 9.32 -7 10 C-5.68 10 -4.36 10 -3 10 C-2.67 11.65 -2.34 13.3 -2 15 C-5.13349732 16.04449911 -5.98968256 15.93423645 -9 15 C-9 13.68 -9 12.36 -9 11 C-10.32 11.33 -11.64 11.66 -13 12 C-9.48451346 6.95604105 -4.88263123 3.62024153 0 0 Z " fill="#EBEFEC" transform="translate(189,115)"/>
<path d="M0 0 C0 0.99 0 1.98 0 3 C1.98 3.66 3.96 4.32 6 5 C5.34 6.98 4.68 8.96 4 11 C3.01 11 2.02 11 1 11 C1 10.34 1 9.68 1 9 C0.34 9 -0.32 9 -1 9 C-1 7.68 -1 6.36 -1 5 C-2.65 5 -4.3 5 -6 5 C-6.33 4.34 -6.66 3.68 -7 3 C-5.40442685 -0.19114631 -3.35905282 0 0 0 Z " fill="#F8EBEE" transform="translate(215,99)"/>
<path d="M0 0 C1.4606285 2.64738916 2 3.89448334 2 7 C4.97 7.495 4.97 7.495 8 8 C8 9.98 8 11.96 8 14 C6.02 14 4.04 14 2 14 C1.67 12.68 1.34 11.36 1 10 C-0.65 9.67 -2.3 9.34 -4 9 C-3.525625 8.443125 -3.05125 7.88625 -2.5625 7.3125 C-0.87604004 4.81653926 -0.41046893 2.9553763 0 0 Z " fill="#ECF0EF" transform="translate(151,89)"/>
<path d="M0 0 C0 3.38023517 -0.87455622 5.83468937 -2 9 C-1.01 9 -0.02 9 1 9 C0.67 9.66 0.34 10.32 0 11 C-1.11375 10.814375 -2.2275 10.62875 -3.375 10.4375 C-6.82568861 9.68319343 -6.82568861 9.68319343 -9 11 C-8.67 8.03 -8.34 5.06 -8 2 C-5.36 1.34 -2.72 0.68 0 0 Z " fill="#F0F0F0" transform="translate(119,150)"/>
<path d="M0 0 C4.51617599 -0.07654536 8.59085217 -0.10228696 13 1 C13 3.31 13 5.62 13 8 C10.69 8 8.38 8 6 8 C5.61781233 6.34385343 5.28604898 4.67542976 5 3 C5.33 2.67 5.66 2.34 6 2 C3.03 1.505 3.03 1.505 0 1 C0 0.67 0 0.34 0 0 Z " fill="#ECEEEE" transform="translate(70,144)"/>
<path d="M0 0 C0.33 0.66 0.66 1.32 1 2 C0.67 2.99 0.34 3.98 0 5 C0.185625 5.680625 0.37125 6.36125 0.5625 7.0625 C0.706875 7.701875 0.85125 8.34125 1 9 C0.34 9.66 -0.32 10.32 -1 11 C-1 10.01 -1 9.02 -1 8 C-2.98 8 -4.96 8 -7 8 C-7 5.69 -7 3.38 -7 1 C-3.535 0.505 -3.535 0.505 0 0 Z " fill="#FCFCFC" transform="translate(7,158)"/>
<path d="M0 0 C2.31 0 4.62 0 7 0 C7 0.66 7 1.32 7 2 C7.639375 1.814375 8.27875 1.62875 8.9375 1.4375 C9.9584375 1.2209375 9.9584375 1.2209375 11 1 C12 2 12 2 12.0625 5.0625 C12.041875 6.031875 12.02125 7.00125 12 8 C9.69 8 7.38 8 5 8 C5 5.69 5 3.38 5 1 C3.68 1.33 2.36 1.66 1 2 C0.67 1.34 0.34 0.68 0 0 Z " fill="#FCFDFD" transform="translate(78,144)"/>
<path d="M0 0 C2.64 0 5.28 0 8 0 C8.04254356 1.99954746 8.04080783 4.00041636 8 6 C7 7 7 7 5.15234375 7.09765625 C3.1015625 7.06510417 1.05078125 7.03255208 -1 7 C-0.67 4.69 -0.34 2.38 0 0 Z " fill="#FCFCFC" transform="translate(48,0)"/>
<path d="M0 0 C2.31 0 4.62 0 7 0 C7 2.31 7 4.62 7 7 C5.02 7 3.04 7 1 7 C0.67 7.66 0.34 8.32 0 9 C-1.53445094 5.93109813 -0.54984289 3.29905734 0 0 Z " fill="#FCFCFC" transform="translate(76,152)"/>
<path d="M0 0 C1.65 0.33 3.3 0.66 5 1 C1.68542782 5.69564393 -2.36279281 8.72469104 -7 12 C-7.66 11.01 -8.32 10.02 -9 9 C-8.67 8.01 -8.34 7.02 -8 6 C-5.0625 4.875 -5.0625 4.875 -2 4 C-1.34 3.67 -0.68 3.34 0 3 C0 2.01 0 1.02 0 0 Z " fill="#DB581A" transform="translate(174,122)"/>
<path d="M0 0 C0.66 0.66 1.32 1.32 2 2 C1.34 2 0.68 2 0 2 C0 3.98 0 5.96 0 8 C-2.31 8 -4.62 8 -7 8 C-7 5.69 -7 3.38 -7 1 C-3.625 0.375 -3.625 0.375 0 0 Z " fill="#FCFCFC" transform="translate(7,75)"/>
<path d="M0 0 C3.96 0.99 3.96 0.99 8 2 C8 3.98 8 5.96 8 8 C6.02 8 4.04 8 2 8 C1.67 7.01 1.34 6.02 1 5 C0.01 5 -0.98 5 -2 5 C-1.34 3.35 -0.68 1.7 0 0 Z " fill="#F9FCFC" transform="translate(117,123)"/>
<path d="M0 0 C2.31 0.33 4.62 0.66 7 1 C7.33 4.96 7.66 8.92 8 13 C6 9 6 9 6 7 C3.69 7 1.38 7 -1 7 C-0.7525 6.1028125 -0.7525 6.1028125 -0.5 5.1875 C0.1114124 2.88655664 0.1114124 2.88655664 0 0 Z " fill="#EFEFEF" transform="translate(257,62)"/>
<path d="M0 0 C-0.99 1.485 -0.99 1.485 -2 3 C-1.6878236 5.64632287 -1.6878236 5.64632287 -1 8 C-3.33294775 8.04241723 -5.66702567 8.04092937 -8 8 C-9 7 -9 7 -9.0625 3.9375 C-9.041875 2.968125 -9.02125 1.99875 -9 1 C-3.375 -1.125 -3.375 -1.125 0 0 Z " fill="#EFEFEF" transform="translate(217,41)"/>
<path d="M0 0 C2.31 0 4.62 0 7 0 C7 2.31 7 4.62 7 7 C4.36 7 1.72 7 -1 7 C-0.67 4.69 -0.34 2.38 0 0 Z " fill="#FCFCFC" transform="translate(256,0)"/>
<path d="M0 0 C2.64 0 5.28 0 8 0 C8 2.31 8 4.62 8 7 C4.98968256 7.93423645 4.13349732 8.04449911 1 7 C0.67 4.69 0.34 2.38 0 0 Z " fill="#FCFCFC" transform="translate(96,159)"/>
<path d="M0 0 C2.31 0 4.62 0 7 0 C7 2.31 7 4.62 7 7 C4.69 7 2.38 7 0 7 C0 4.69 0 2.38 0 0 Z " fill="#FCFCFC" transform="translate(201,152)"/>
<path d="M0 0 C2.31 0 4.62 0 7 0 C7 2.31 7 4.62 7 7 C4.69 7 2.38 7 0 7 C0 4.69 0 2.38 0 0 Z " fill="#FDFDFD" transform="translate(104,152)"/>
<path d="M0 0 C1.65 0 3.3 0 5 0 C4.01 1.485 4.01 1.485 3 3 C3.15701426 5.61915122 3.15701426 5.61915122 4 8 C6.9615696 9.4807848 9.83506295 9.35314037 13.125 9.5625 C14.40632813 9.64628906 15.68765625 9.73007813 17.0078125 9.81640625 C17.99523437 9.87699219 18.98265625 9.93757812 20 10 C20 10.33 20 10.66 20 11 C17.04160645 11.02689449 14.08345573 11.04678741 11.125 11.0625 C9.86236328 11.07506836 9.86236328 11.07506836 8.57421875 11.08789062 C7.76855469 11.09111328 6.96289062 11.09433594 6.1328125 11.09765625 C5.38918457 11.10289307 4.64555664 11.10812988 3.87939453 11.11352539 C2 11 2 11 0 10 C0 8.02 0 6.04 0 4 C-0.66 3.67 -1.32 3.34 -2 3 C-1.34 3 -0.68 3 0 3 C0 2.01 0 1.02 0 0 Z " fill="#FCEEE3" transform="translate(124,134)"/>
<path d="M0 0 C1.1446875 0.0928125 1.1446875 0.0928125 2.3125 0.1875 C-1.02083333 3.52083333 -4.35416667 6.85416667 -7.6875 10.1875 C-9.0075 9.5275 -10.3275 8.8675 -11.6875 8.1875 C-9.0625 4.3125 -9.0625 4.3125 -5.6875 3.1875 C-5.23375 2.671875 -4.78 2.15625 -4.3125 1.625 C-2.6875 0.1875 -2.6875 0.1875 0 0 Z " fill="#D55717" transform="translate(189.6875,111.8125)"/>
<path d="M0 0 C2.31 0 4.62 0 7 0 C7 2.31 7 4.62 7 7 C4.69 7 2.38 7 0 7 C0 4.69 0 2.38 0 0 Z " fill="#FDFDFD" transform="translate(277,76)"/>
<path d="M0 0 C2.31 0 4.62 0 7 0 C7 2.31 7 4.62 7 7 C4.69 7 2.38 7 0 7 C0 4.69 0 2.38 0 0 Z " fill="#FDFDFD" transform="translate(201,0)"/>
<path d="M0 0 C2.31 0 4.62 0 7 0 C7 2.31 7 4.62 7 7 C4.69 7 2.38 7 0 7 C0 4.69 0 2.38 0 0 Z " fill="#FDFDFD" transform="translate(104,0)"/>
<path d="M0 0 C1.4540625 0.0309375 1.4540625 0.0309375 2.9375 0.0625 C2.9375 2.3725 2.9375 4.6825 2.9375 7.0625 C0.6275 7.0625 -1.6825 7.0625 -4.0625 7.0625 C-4.10504356 5.06295254 -4.10330783 3.06208364 -4.0625 1.0625 C-3.0625 0.0625 -3.0625 0.0625 0 0 Z " fill="#EFEFEF" transform="translate(4.0625,151.9375)"/>
<path d="M0 0 C1.4540625 0.0309375 1.4540625 0.0309375 2.9375 0.0625 C2.9375 2.3725 2.9375 4.6825 2.9375 7.0625 C0.6275 7.0625 -1.6825 7.0625 -4.0625 7.0625 C-4.10504356 5.06295254 -4.10330783 3.06208364 -4.0625 1.0625 C-3.0625 0.0625 -3.0625 0.0625 0 0 Z " fill="#FCFDFC" transform="translate(101.0625,75.9375)"/>
<path d="M0 0 C2.64 0.66 5.28 1.32 8 2 C8 6.29 8 10.58 8 15 C6.22889865 12.34334798 4.53691486 9.66320094 2.875 6.9375 C2.33617187 6.05964844 1.79734375 5.18179688 1.2421875 4.27734375 C0 2 0 2 0 0 Z " fill="#D65619" transform="translate(175,73)"/>
<path d="M0 0 C0.99 0 1.98 0 3 0 C3.391875 1.134375 3.78375 2.26875 4.1875 3.4375 C5.58610882 7.20339051 5.58610882 7.20339051 8.6875 7.9375 C9.8321875 7.9684375 9.8321875 7.9684375 11 8 C10.67 10.97 10.34 13.94 10 17 C7.45616883 13.76737762 5.37788083 10.3673798 3.3125 6.8125 C2.68988281 5.74644531 2.06726563 4.68039063 1.42578125 3.58203125 C0 1 0 1 0 0 Z " fill="#F4E9DB" transform="translate(196,56)"/>
<path d="M0 0 C0 2.31 0 4.62 0 7 C-2.31 7.33 -4.62 7.66 -7 8 C-7 5.69 -7 3.38 -7 1 C-4 0 -4 0 0 0 Z " fill="#FCFCFC" transform="translate(284,48)"/>
<path d="M0 0 C1.98 0 3.96 0 6 0 C6.33 1.65 6.66 3.3 7 5 C2.25 8 2.25 8 0 8 C-0.33 8.66 -0.66 9.32 -1 10 C-0.67 6.7 -0.34 3.4 0 0 Z " fill="#EFEFEF" transform="translate(42,0)"/>
<path d="M0 0 C2.31 0 4.62 0 7 0 C7.04254356 1.99954746 7.04080783 4.00041636 7 6 C6 7 6 7 2.9375 7.0625 C1.4834375 7.0315625 1.4834375 7.0315625 0 7 C0 4.69 0 2.38 0 0 Z " fill="#EFEFEF" transform="translate(0,0)"/>
<path d="M0 0 C1.98 0 3.96 0 6 0 C6 2.31 6 4.62 6 7 C3.69 7 1.38 7 -1 7 C-0.67 4.69 -0.34 2.38 0 0 Z " fill="#EFEFEF" transform="translate(181,152)"/>
<path d="M0 0 C0.78375 0.04125 1.5675 0.0825 2.375 0.125 C2.375 2.435 2.375 4.745 2.375 7.125 C0.065 7.455 -2.245 7.785 -4.625 8.125 C-4.75 5.25 -4.75 5.25 -4.625 2.125 C-2.625 0.125 -2.625 0.125 0 0 Z " fill="#EFEFEF" transform="translate(281.625,123.875)"/>
<path d="M0 0 C1.4540625 0.0309375 1.4540625 0.0309375 2.9375 0.0625 C2.98004356 2.06204746 2.97830783 4.06291636 2.9375 6.0625 C1.9375 7.0625 1.9375 7.0625 -0.5625 7.1875 C-3.0625 7.0625 -3.0625 7.0625 -4.0625 6.0625 C-4.1875 3.5625 -4.1875 3.5625 -4.0625 1.0625 C-3.0625 0.0625 -3.0625 0.0625 0 0 Z " fill="#EDEDED" transform="translate(80.0625,75.9375)"/>
<path d="M0 0 C2.5 0.125 2.5 0.125 3.5 1.125 C3.54080783 3.12458364 3.54254356 5.12545254 3.5 7.125 C0.8333581 8.45832095 -0.66680303 7.79602033 -3.5 7.125 C-3.54254356 5.12545254 -3.54080783 3.12458364 -3.5 1.125 C-2.5 0.125 -2.5 0.125 0 0 Z " fill="#FCFCFC" transform="translate(3.5,47.875)"/>
<path d="M0 0 C1.98 0 3.96 0 6 0 C6 2.31 6 4.62 6 7 C3.69 7 1.38 7 -1 7 C-0.67 4.69 -0.34 2.38 0 0 Z " fill="#EFEFEF" transform="translate(181,0)"/>
<path d="M0 0 C1.4540625 0.0309375 1.4540625 0.0309375 2.9375 0.0625 C2.9375 2.3725 2.9375 4.6825 2.9375 7.0625 C0.6275 7.0625 -1.6825 7.0625 -4.0625 7.0625 C-4.10504356 5.06295254 -4.10330783 3.06208364 -4.0625 1.0625 C-3.0625 0.0625 -3.0625 0.0625 0 0 Z " fill="#EFEFEF" transform="translate(101.0625,151.9375)"/>
<path d="M0 0 C1.859375 0.24609375 1.859375 0.24609375 4 1 C5.265625 2.84765625 5.265625 2.84765625 6.25 5.0625 C6.75273438 6.16271484 6.75273438 6.16271484 7.265625 7.28515625 C7.50796875 7.85105469 7.7503125 8.41695312 8 9 C5 11 5 11 1 11 C1.020625 10.030625 1.04125 9.06125 1.0625 8.0625 C1.35618499 5.12534105 1.35618499 5.12534105 0 4 C0 2.68 0 1.36 0 0 Z " fill="#E3EAED" transform="translate(96,51)"/>
<path d="M0 0 C1.67542976 0.28604898 3.34385343 0.61781233 5 1 C4.95875 1.763125 4.9175 2.52625 4.875 3.3125 C4.77919176 6.22718416 4.77919176 6.22718416 7 9 C6.01 9.33 5.02 9.66 4 10 C3.67 9.01 3.34 8.02 3 7 C1.68 7 0.36 7 -1 7 C-1 6.34 -1 5.68 -1 5 C-1.66 5 -2.32 5 -3 5 C-1.125 1.125 -1.125 1.125 0 0 Z " fill="#FAFCFD" transform="translate(86,35)"/>
<path d="M0 0 C1.98 0 3.96 0 6 0 C6 2.31 6 4.62 6 7 C4.02 7 2.04 7 0 7 C-0.93423645 3.98968256 -1.04449911 3.13349732 0 0 Z " fill="#EEEEEE" transform="translate(278,0)"/>
<path d="M0 0 C1.4540625 0.0309375 1.4540625 0.0309375 2.9375 0.0625 C2.98004356 2.06204746 2.97830783 4.06291636 2.9375 6.0625 C1.9375 7.0625 1.9375 7.0625 -0.5625 7.1875 C-3.0625 7.0625 -3.0625 7.0625 -4.0625 6.0625 C-4.1875 3.5625 -4.1875 3.5625 -4.0625 1.0625 C-3.0625 0.0625 -3.0625 0.0625 0 0 Z " fill="#EFEFEF" transform="translate(129.0625,-0.0625)"/>
<path d="M0 0 C1.4540625 0.0309375 1.4540625 0.0309375 2.9375 0.0625 C2.9375 2.3725 2.9375 4.6825 2.9375 7.0625 C0.6275 7.0625 -1.6825 7.0625 -4.0625 7.0625 C-4.10504356 5.06295254 -4.10330783 3.06208364 -4.0625 1.0625 C-3.0625 0.0625 -3.0625 0.0625 0 0 Z " fill="#EFEFEF" transform="translate(101.0625,-0.0625)"/>
<path d="M0 0 C0.33 2.31 0.66 4.62 1 7 C-3.75 8.125 -3.75 8.125 -6 7 C-6 5.02 -6 3.04 -6 1 C-3 0 -3 0 0 0 Z " fill="#EFEFEF" transform="translate(6,124)"/>
<path d="M0 0 C2.31 0 4.62 0 7 0 C7 2.31 7 4.62 7 7 C1.125 6.125 1.125 6.125 0 5 C-0.04063832 3.33382885 -0.042721 1.66611905 0 0 Z " fill="#EFEFEF" transform="translate(277,97)"/>
<path d="M0 0 C2.64 0 5.28 0 8 0 C7.67 2.31 7.34 4.62 7 7 C5.02 7 3.04 7 1 7 C0 2.25 0 2.25 0 0 Z " fill="#FDFDFD" transform="translate(256,83)"/>
<path d="M0 0 C1.98 0 3.96 0 6 0 C6 2.31 6 4.62 6 7 C3.69 7 1.38 7 -1 7 C-0.67 4.69 -0.34 2.38 0 0 Z " fill="#EEEEEE" transform="translate(278,152)"/>
<path d="M0 0 C-0.66 1.98 -1.32 3.96 -2 6 C-3.98 6 -5.96 6 -8 6 C-8 4.02 -8 2.04 -8 0 C-4.94736336 -0.98120464 -3.05263664 -0.98120464 0 0 Z " fill="#EFEFEF" transform="translate(112,146)"/>
<path d="M0 0 C1.98 0 3.96 0 6 0 C6 1.98 6 3.96 6 6 C3.35261084 7.4606285 2.10551666 8 -1 8 C-0.67 5.36 -0.34 2.72 0 0 Z " fill="#EEEEEE" transform="translate(250,0)"/>
<path d="M0 0 C2.31 0 4.62 0 7 0 C7.04254356 1.99954746 7.04080783 4.00041636 7 6 C6 7 6 7 3.5 7.125 C1 7 1 7 0 6 C-0.04080783 4.00041636 -0.04254356 1.99954746 0 0 Z " fill="#EFEFEF" transform="translate(153,0)"/>
<path d="M0 0 C1.65 0 3.3 0 5 0 C6.04449911 3.13349732 5.93423645 3.98968256 5 7 C3.02 7 1.04 7 -1 7 C-1.33 6.34 -1.66 5.68 -2 5 C-1.0625 2.375 -1.0625 2.375 0 0 Z " fill="#FDFDFD" transform="translate(50,152)"/>
<path d="M0 0 C-0.33 1.98 -0.66 3.96 -1 6 C-2.98 6 -4.96 6 -7 6 C-7 4.02 -7 2.04 -7 0 C-4.3333581 -1.33332095 -2.83319697 -0.67102033 0 0 Z " fill="#FDFDFD" transform="translate(215,146)"/>
<path d="M0 0 C2.31 0.33 4.62 0.66 7 1 C7.33 2.98 7.66 4.96 8 7 C5.69 7 3.38 7 1 7 C0.67 4.69 0.34 2.38 0 0 Z " fill="#FCFBFD" transform="translate(207,103)"/>
<path d="M0 0 C1.65 0 3.3 0 5 0 C5 2.31 5 4.62 5 7 C2.69 7 0.38 7 -2 7 C-1.34 4.69 -0.68 2.38 0 0 Z " fill="#FEFBFC" transform="translate(154,76)"/>
<path d="M0 0 C0.33 1.65 0.66 3.3 1 5 C0.360625 5.226875 -0.27875 5.45375 -0.9375 5.6875 C-3.27193661 6.85250896 -3.27193661 6.85250896 -3.75 9.625 C-3.8325 10.40875 -3.915 11.1925 -4 12 C-5.32 10.35 -6.64 8.7 -8 7 C-4.5 0 -4.5 0 0 0 Z " fill="#E7EAEC" transform="translate(144,55)"/>
<path d="M0 0 C1.4540625 0.0309375 1.4540625 0.0309375 2.9375 0.0625 C2.9375 1.3825 2.9375 2.7025 2.9375 4.0625 C5.5775 4.0625 8.2175 4.0625 10.9375 4.0625 C10.9375 4.3925 10.9375 4.7225 10.9375 5.0625 C5.9875 5.3925 1.0375 5.7225 -4.0625 6.0625 C-4.0625 0.08290816 -4.0625 0.08290816 0 0 Z " fill="#E1E9ED" transform="translate(101.0625,27.9375)"/>
<path d="M0 0 C1.65 0 3.3 0 5 0 C5.38133299 1.9914056 5.71325582 3.99279077 6 6 C5 7 5 7 1.9375 7.0625 C0.968125 7.041875 -0.00125 7.02125 -1 7 C-1.33 5.68 -1.66 4.36 -2 3 C-1.01 3 -0.02 3 1 3 C0.67 2.01 0.34 1.02 0 0 Z " fill="#EFEFEF" transform="translate(64,145)"/>
<path d="M0 0 C2.4375 0.375 2.4375 0.375 5 1 C6.24546405 3.49092811 5.7767578 4.41080733 5 7 C3.02 7 1.04 7 -1 7 C-1.33 6.34 -1.66 5.68 -2 5 C-1.0625 2.375 -1.0625 2.375 0 0 Z " fill="#EFEFEF" transform="translate(50,145)"/>
<path d="M0 0 C0 3 0 3 -2.1875 5.4375 C-5 8 -5 8 -7.6875 10 C-10.22592982 12.19539877 -11.03068679 13.82770221 -12 17 C-13.65 16.67 -15.3 16.34 -17 16 C-13.33090512 12.27644731 -9.55325121 8.7056624 -5.6875 5.1875 C-5.13771484 4.68541016 -4.58792969 4.18332031 -4.02148438 3.66601562 C-2.68194761 2.44296032 -1.34111008 1.22132992 0 0 Z " fill="#CA622F" transform="translate(145,120)"/>
<path d="M0 0 C-1.13271712 3.39815137 -2.1909314 4.28644916 -4.875 6.5625 C-5.57367188 7.16191406 -6.27234375 7.76132813 -6.9921875 8.37890625 C-9 10 -9 10 -12 12 C-12.33 10.68 -12.66 9.36 -13 8 C-12.21625 7.79375 -11.4325 7.5875 -10.625 7.375 C-7.09902395 5.52806016 -7.1719773 3.67219553 -6 0 C-3.40948545 -1.21430369 -2.56984526 -1.28492263 0 0 Z " fill="#DFE9EF" transform="translate(76,125)"/>
<path d="M0 0 C0.33 0.66 0.66 1.32 1 2 C1.66 2.33 2.32 2.66 3 3 C1 5 1 5 -2.125 5.125 C-3.07375 5.08375 -4.0225 5.0425 -5 5 C-5 6.32 -5 7.64 -5 9 C-5.99 9.33 -6.98 9.66 -8 10 C-8.66 9.67 -9.32 9.34 -10 9 C-10 8.01 -10 7.02 -10 6 C-7.8125 4.39453125 -7.8125 4.39453125 -5 2.8125 C-4.071875 2.28269531 -3.14375 1.75289063 -2.1875 1.20703125 C-1.465625 0.80871094 -0.74375 0.41039063 0 0 Z " fill="#E55413" transform="translate(156,113)"/>
<path d="M0 0 C2.125 0.9375 2.125 0.9375 4 2 C3.34 3.98 2.68 5.96 2 8 C0.35 8 -1.3 8 -3 8 C-4 5 -4 5 -3.1875 2.875 C-2 1 -2 1 0 0 Z " fill="#FCFCFC" transform="translate(260,96)"/>
<path d="M0 0 C2.31 0 4.62 0 7 0 C7 1.98 7 3.96 7 6 C4.69 6 2.38 6 0 6 C0 4.02 0 2.04 0 0 Z " fill="#EFEFEF" transform="translate(0,97)"/>
<path d="M0 0 C0 1.65 0 3.3 0 5 C-2.64 5.33 -5.28 5.66 -8 6 C-8 4.35 -8 2.7 -8 1 C-4.93251126 -0.86240388 -3.40254489 -1.2151946 0 0 Z " fill="#F7FBFB" transform="translate(146,105)"/>
<path d="M0 0 C1.33332095 2.6666419 0.67102033 4.16680303 0 7 C-1.98 7.33 -3.96 7.66 -6 8 C-7.33332095 5.3333581 -6.67102033 3.83319697 -6 1 C-4.02 0.67 -2.04 0.34 0 0 Z " fill="#EEEEEE" transform="translate(48,96)"/>
<path d="M0 0 C0.66 0.66 1.32 1.32 2 2 C-1.63 5.63 -5.26 9.26 -9 13 C-9.33 11.68 -9.66 10.36 -10 9 C-9.01 8.319375 -9.01 8.319375 -8 7.625 C-7.34 7.08875 -6.68 6.5525 -6 6 C-6 5.34 -6 4.68 -6 4 C-4.03852126 2.61061923 -2.03833424 1.2739589 0 0 Z " fill="#FBE5D5" transform="translate(176,89)"/>
<path d="M0 0 C1.67542976 0.28604898 3.34385343 0.61781233 5 1 C5 2.98 5 4.96 5 7 C4.01 7.495 4.01 7.495 3 8 C0.375 7.0625 0.375 7.0625 -2 6 C-1.125 1.125 -1.125 1.125 0 0 Z " fill="#EFEFEF" transform="translate(258,48)"/>
<path d="M0 0 C1.67542976 0.28604898 3.34385343 0.61781233 5 1 C5 2.98 5 4.96 5 7 C3.02 7 1.04 7 -1 7 C-1.04254356 5.00045254 -1.04080783 2.99958364 -1 1 C-0.67 0.67 -0.34 0.34 0 0 Z " fill="#EFEFEF" transform="translate(50,48)"/>
<path d="M0 0 C1.32 0.33 2.64 0.66 4 1 C4 1.99 4 2.98 4 4 C4.66 4 5.32 4 6 4 C7.25664978 6.90600261 8 8.79604584 8 12 C8.66 12 9.32 12 10 12 C10.33 13.98 10.66 15.96 11 18 C8.01232 14.43064779 5.57336152 10.78113152 3.25 6.75 C2.63640625 5.69296875 2.0228125 4.6359375 1.390625 3.546875 C0 1 0 1 0 0 Z " fill="#D45A2C" transform="translate(164,55)"/>
<path d="M0 0 C-0.33 1.98 -0.66 3.96 -1 6 C-3.07553648 6.5534764 -4.84365964 7 -7 7 C-8 4 -8 4 -7 1 C-4.53721199 -0.231394 -2.7204945 -0.07159196 0 0 Z " fill="#EBEDEC" transform="translate(139,48)"/>
<path d="M0 0 C1.67542976 0.28604898 3.34385343 0.61781233 5 1 C5 2.98 5 4.96 5 7 C3.02 7 1.04 7 -1 7 C-1.04254356 5.00045254 -1.04080783 2.99958364 -1 1 C-0.67 0.67 -0.34 0.34 0 0 Z " fill="#EEEEEE" transform="translate(147,145)"/>
<path d="M0 0 C1.98 0.66 3.96 1.32 6 2 C5.67 3.32 5.34 4.64 5 6 C3.34385343 6.38218767 1.67542976 6.71395102 0 7 C-1 6 -1 6 -1.125 3.5 C-1 1 -1 1 0 0 Z " fill="#EEEEEE" transform="translate(8,103)"/>
<path d="M0 0 C0.99 0 1.98 0 3 0 C3 0.99 3 1.98 3 3 C3.99 3.33 4.98 3.66 6 4 C5.01 4.33 4.02 4.66 3 5 C3 5.66 3 6.32 3 7 C-1.47058824 11 -1.47058824 11 -4 11 C-4 9.35 -4 7.7 -4 6 C-0.25 4.875 -0.25 4.875 2 6 C1.34 4.02 0.68 2.04 0 0 Z " fill="#DC5C26" transform="translate(202,96)"/>
<path d="M0 0 C1.66611905 -0.042721 3.33382885 -0.04063832 5 0 C6 1 6 1 6.0625 3.5625 C6.041875 4.366875 6.02125 5.17125 6 6 C4.02 6.33 2.04 6.66 0 7 C-1.33332095 4.3333581 -0.67102033 2.83319697 0 0 Z " fill="#EEEEEE" transform="translate(250,97)"/>
<path d="M0 0 C2.4300142 1.90175025 2.98291831 2.92546173 3.6875 6 C3.96803553 8.69314108 4 11.29689478 4 14 C3.01 13.67 2.02 13.34 1 13 C1 12.01 1 11.02 1 10 C0.34 9.67 -0.32 9.34 -1 9 C-1 8.34 -1 7.68 -1 7 C-0.34 7 0.32 7 1 7 C1 6.34 1 5.68 1 5 C0.34 5 -0.32 5 -1 5 C-0.67 3.35 -0.34 1.7 0 0 Z " fill="#193747" transform="translate(138,66)"/>
<path d="M0 0 C1.98 0 3.96 0 6 0 C5.34 1.32 4.68 2.64 4 4 C4.99 4.66 5.98 5.32 7 6 C6 7 6 7 3.5 7.125 C1 7 1 7 0 6 C-0.04080783 4.00041636 -0.04254356 1.99954746 0 0 Z " fill="#EEEEEE" transform="translate(236,152)"/>
<path d="M0 0 C1.67542976 0.28604898 3.34385343 0.61781233 5 1 C5 2.65 5 4.3 5 6 C3.02 6.33 1.04 6.66 -1 7 C-1.04254356 5.00045254 -1.04080783 2.99958364 -1 1 C-0.67 0.67 -0.34 0.34 0 0 Z " fill="#EEEEEE" transform="translate(43,152)"/>
<path d="M0 0 C1.67542976 0.28604898 3.34385343 0.61781233 5 1 C5.042721 2.66611905 5.04063832 4.33382885 5 6 C4 7 4 7 1.4375 7.0625 C0.2309375 7.0315625 0.2309375 7.0315625 -1 7 C-1.04254356 5.00045254 -1.04080783 2.99958364 -1 1 C-0.67 0.67 -0.34 0.34 0 0 Z " fill="#EEEEEE" transform="translate(50,76)"/>
<path d="M0 0 C1.67542976 0.28604898 3.34385343 0.61781233 5 1 C5 2.98 5 4.96 5 7 C3.02 7 1.04 7 -1 7 C-1.04254356 5.00045254 -1.04080783 2.99958364 -1 1 C-0.67 0.67 -0.34 0.34 0 0 Z " fill="#EEEEEE" transform="translate(147,48)"/>
<path d="M0 0 C1.98 0 3.96 0 6 0 C6.33 0.99 6.66 1.98 7 3 C3.17010894 4.80230168 0.21878192 5.19622241 -4 5 C-3.67 4.01 -3.34 3.02 -3 2 C-2.01 2 -1.02 2 0 2 C0 1.34 0 0.68 0 0 Z " fill="#193A43" transform="translate(89,137)"/>
<path d="M0 0 C2 2 2 2 2 5 C2.99 5 3.98 5 5 5 C4.67 6.32 4.34 7.64 4 9 C1.69 8.01 -0.62 7.02 -3 6 C-2.42655063 3.13275314 -2.1385485 2.1385485 0 0 Z " fill="#FCFCFB" transform="translate(79,110)"/>
<path d="M0 0 C0 3.81180777 -0.56843446 5.05264783 -3 8 C-5.9232827 9.31133072 -8.90117197 10.20093114 -12 11 C-8.19588166 7.08060535 -4.18423892 3.50897269 0 0 Z " fill="#FBE1CB" transform="translate(202,104)"/>
<path d="M0 0 C0.99 0 1.98 0 3 0 C3 0.99 3 1.98 3 3 C3.99 3.33 4.98 3.66 6 4 C5.34 5.32 4.68 6.64 4 8 C3.67 7.34 3.34 6.68 3 6 C1.68 6.33 0.36 6.66 -1 7 C-1.04254356 5.00045254 -1.04080783 2.99958364 -1 1 C-0.67 0.67 -0.34 0.34 0 0 Z " fill="#FAFDFD" transform="translate(105,69)"/>
<path d="M0 0 C0.99 0 1.98 0 3 0 C3.625 2.375 3.625 2.375 4 5 C3.34 5.66 2.68 6.32 2 7 C-0.125 6.625 -0.125 6.625 -2 6 C-2 2 -2 2 0 0 Z " fill="#EFEFEF" transform="translate(253,139)"/>
<path d="M0 0 C0.66 0 1.32 0 2 0 C3.125 3.75 3.125 3.75 2 6 C0.35 6 -1.3 6 -3 6 C-3.33 6.66 -3.66 7.32 -4 8 C-4.66 6.68 -5.32 5.36 -6 4 C-4.35 3.67 -2.7 3.34 -1 3 C-0.67 2.01 -0.34 1.02 0 0 Z " fill="#F2E7E2" transform="translate(212,70)"/>
<path d="M0 0 C0.99 0 1.98 0 3 0 C3 0.66 3 1.32 3 2 C3.66 2 4.32 2 5 2 C4.67 3.32 4.34 4.64 4 6 C2.02 6 0.04 6 -2 6 C-1.125 1.125 -1.125 1.125 0 0 Z " fill="#EEEEEE" transform="translate(141,42)"/>
<path d="M0 0 C0 1.98 0 3.96 0 6 C-1.65614657 6.38218767 -3.32457024 6.71395102 -5 7 C-6 6 -6 6 -6.0625 3.4375 C-6.041875 2.633125 -6.02125 1.82875 -6 1 C-3.92446352 0.4465236 -2.15634036 0 0 0 Z " fill="#EEEEEE" transform="translate(55,21)"/>
<path d="M0 0 C0.66 0 1.32 0 2 0 C2.33 0.66 2.66 1.32 3 2 C3.66 1.67 4.32 1.34 5 1 C5.33 2.65 5.66 4.3 6 6 C2.98968256 6.93423645 2.13349732 7.04449911 -1 6 C-1.042721 4.33388095 -1.04063832 2.66617115 -1 1 C-0.67 0.67 -0.34 0.34 0 0 Z " fill="#EEEEEE" transform="translate(105,21)"/>
<path d="M0 0 C-1.75 4.875 -1.75 4.875 -4 6 C-4.99 5.34 -5.98 4.68 -7 4 C-7 2.68 -7 1.36 -7 0 C-4.3333581 -1.33332095 -2.83319697 -0.67102033 0 0 Z " fill="#EDEDED" transform="translate(153,8)"/>
<path d="M0 0 C0.1875 2.375 0.1875 2.375 0 5 C-0.99 5.66 -1.98 6.32 -3 7 C-3.99 6.34 -4.98 5.68 -6 5 C-6 3.68 -6 2.36 -6 1 C-4 0 -4 0 0 0 Z " fill="#EDEDED" transform="translate(152,159)"/>
<path d="M0 0 C-1.39332574 3.36720387 -2.9789286 4.9859524 -6 7 C-6.33 4.69 -6.66 2.38 -7 0 C-3.86650268 -1.04449911 -3.01031744 -0.93423645 0 0 Z " fill="#ECF0F4" transform="translate(90,112)"/>
<path d="M0 0 C2.97 0.495 2.97 0.495 6 1 C6 1.99 6 2.98 6 4 C3.5 5.6875 3.5 5.6875 1 7 C0 6 0 6 -0.0625 2.9375 C-0.041875 1.968125 -0.02125 0.99875 0 0 Z " fill="#EEEFED" transform="translate(208,111)"/>
<path d="M0 0 C0.99 0.33 1.98 0.66 3 1 C2.67 1.33 2.34 1.66 2 2 C2.66 2.33 3.32 2.66 4 3 C2.60667426 6.36720387 1.0210714 7.9859524 -2 10 C-2.89868727 7.48367565 -3.1616905 6.39267692 -2.125 3.875 C-1.75375 3.25625 -1.3825 2.6375 -1 2 C-0.67 1.34 -0.34 0.68 0 0 Z " fill="#E4EBEB" transform="translate(92,104)"/>
<path d="M0 0 C1.89213369 2.38573379 3.02391783 4.07175348 4 7 C2.8125 9.1875 2.8125 9.1875 1 11 C-0.32 11 -1.64 11 -3 11 C-2.690625 10.484375 -2.38125 9.96875 -2.0625 9.4375 C-0.70940713 6.33334577 -0.38640576 3.34884993 0 0 Z " fill="#DE5920" transform="translate(203,69)"/>
<path d="M0 0 C4.13371903 3.67441691 7.3543783 7.62501483 9 13 C8.6015625 15.24609375 8.6015625 15.24609375 8 17 C6.65869239 14.73354942 5.32683766 12.46239903 4 10.1875 C3.42765625 9.22360352 3.42765625 9.22360352 2.84375 8.24023438 C0 3.33984375 0 3.33984375 0 0 Z " fill="#D15F34" transform="translate(155,38)"/>
<path d="M0 0 C1.2065625 0.0309375 1.2065625 0.0309375 2.4375 0.0625 C1.7775 2.0425 1.1175 4.0225 0.4375 6.0625 C-1.2125 5.7325 -2.8625 5.4025 -4.5625 5.0625 C-3.43829114 0.08386076 -3.43829114 0.08386076 0 0 Z " fill="#ECECF2" transform="translate(191.5625,117.9375)"/>
<path d="M0 0 C0.5534764 2.07553648 1 3.84365964 1 6 C-0.175625 6.12375 -0.175625 6.12375 -1.375 6.25 C-4.14749104 6.72806339 -4.14749104 6.72806339 -5.3125 9.0625 C-5.539375 9.701875 -5.76625 10.34125 -6 11 C-7.32 10.67 -8.64 10.34 -10 10 C-9.34 10 -8.68 10 -8 10 C-8 9.34 -8 8.68 -8 8 C-6.50390625 6.5625 -6.50390625 6.5625 -4.5625 5 C-1.84811762 2.85474956 -1.84811762 2.85474956 0 0 Z " fill="#FCDFC5" transform="translate(213,93)"/>
<path d="M0 0 C3.14966379 3.42354759 4 6.35973266 4 11 C1.5625 13.9375 1.5625 13.9375 -1 16 C-1 15.01 -1 14.02 -1 13 C-0.34 13 0.32 13 1 13 C1.08948558 8.52572076 0.85743651 4.39436211 0 0 Z " fill="#CB602F" transform="translate(210,82)"/>
<path d="M0 0 C0 3.93631364 -1.42857129 5.12605026 -4 8 C-6.95664519 9.4783226 -9.74229737 9.06032783 -13 9 C-10.84338244 7.56225496 -8.76289783 6.29816131 -6.5 5.0625 C-3.96223552 3.62997756 -1.90831824 2.24508028 0 0 Z " fill="#FBE0C8" transform="translate(167,133)"/>
<path d="M0 0 C0 0.33 0 0.66 0 1 C-4.29 1.66 -8.58 2.32 -13 3 C-13 3.99 -13 4.98 -13 6 C-13.66 6 -14.32 6 -15 6 C-15 5.01 -15 4.02 -15 3 C-16.65 3.66 -18.3 4.32 -20 5 C-19.67 4.01 -19.34 3.02 -19 2 C-12.66725594 -0.22818773 -6.65927608 -0.22034369 0 0 Z " fill="#E35618" transform="translate(176,34)"/>
<path d="M0 0 C0.66 0.99 1.32 1.98 2 3 C1.67 3.99 1.34 4.98 1 6 C-0.98 6.33 -2.96 6.66 -5 7 C-5 5.68 -5 4.36 -5 3 C-2.5 1.25 -2.5 1.25 0 0 Z " fill="#EEF0F1" transform="translate(117,26)"/>
<path d="M0 0 C3.96873434 1.32291145 4.29905037 2.91149738 6.1875 6.5625 C6.71730469 7.57441406 7.24710937 8.58632812 7.79296875 9.62890625 C8.19128906 10.41136719 8.58960937 11.19382812 9 12 C7 12 7 12 4.5 9.9375 C1.57135687 6.49634432 0.93681194 4.34340079 0 0 Z " fill="#DEEBEE" transform="translate(104,63)"/>
<path d="M0 0 C3.28465896 2.79196011 5.01321958 6.23196817 7 10 C7 10.66 7 11.32 7 12 C5.35 12 3.7 12 2 12 C2.66 11.67 3.32 11.34 4 11 C3.67 9.35 3.34 7.7 3 6 C2.34 6 1.68 6 1 6 C0.34 4.35 -0.32 2.7 -1 1 C-0.67 0.67 -0.34 0.34 0 0 Z " fill="#FBE3CF" transform="translate(165,58)"/>
<path d="M0 0 C-0.33 1.65 -0.66 3.3 -1 5 C-1.61875 4.814375 -2.2375 4.62875 -2.875 4.4375 C-5.04160178 3.76313824 -5.04160178 3.76313824 -7 5 C-7.33 3.68 -7.66 2.36 -8 1 C-3.375 -1.125 -3.375 -1.125 0 0 Z " fill="#234257" transform="translate(101,39)"/>
<path d="M0 0 C0.33 0.99 0.66 1.98 1 3 C-0.299375 3.8353125 -0.299375 3.8353125 -1.625 4.6875 C-4.95945073 6.90252798 -7.96205756 9.39604933 -11 12 C-11.66 11.67 -12.32 11.34 -13 11 C-11.21079529 9.3514184 -9.4187995 7.70606879 -7.625 6.0625 C-6.86316406 5.35963867 -6.86316406 5.35963867 -6.0859375 4.64257812 C-2.2265625 1.11328125 -2.2265625 1.11328125 0 0 Z " fill="#FEDFC7" transform="translate(189,115)"/>
<path d="M0 0 C1.75 1.4375 1.75 1.4375 3 3 C1.25 4.5625 1.25 4.5625 -1 6 C-3.25 5.6875 -3.25 5.6875 -5 5 C-4.67 3.68 -4.34 2.36 -4 1 C-2.1875 0.3125 -2.1875 0.3125 0 0 Z " fill="#E7ECEE" transform="translate(81,117)"/>
<path d="M0 0 C1.98 0 3.96 0 6 0 C6.33 1.65 6.66 3.3 7 5 C6.34 5 5.68 5 5 5 C4.67 5.66 4.34 6.32 4 7 C2 5.1875 2 5.1875 0 3 C0 2.01 0 1.02 0 0 Z " fill="#FDFAFC" transform="translate(209,76)"/>
<path d="M0 0 C1.67542976 0.28604898 3.34385343 0.61781233 5 1 C4.67 2.32 4.34 3.64 4 5 C2.68 5.33 1.36 5.66 0 6 C-0.38218767 4.34385343 -0.71395102 2.67542976 -1 1 C-0.67 0.67 -0.34 0.34 0 0 Z " fill="#EEEEEE" transform="translate(272,63)"/>
<path d="M0 0 C1.32 0 2.64 0 4 0 C4.33 1.98 4.66 3.96 5 6 C3.35 6.33 1.7 6.66 0 7 C-0.38133299 5.0085944 -0.71325582 3.00720923 -1 1 C-0.67 0.67 -0.34 0.34 0 0 Z " fill="#E9EFEC" transform="translate(189,35)"/>
<path d="M0 0 C0.33 0.99 0.66 1.98 1 3 C2.32 2.34 3.64 1.68 5 1 C5.33 1.66 5.66 2.32 6 3 C5.0625 5.125 5.0625 5.125 4 7 C2.68 7 1.36 7 0 7 C-0.38133299 5.0085944 -0.71325582 3.00720923 -1 1 C-0.67 0.67 -0.34 0.34 0 0 Z " fill="#EEEEEE" transform="translate(22,21)"/>
<path d="M0 0 C2.31 0 4.62 0 7 0 C7 1.32 7 2.64 7 4 C4.69 4 2.38 4 0 4 C0 2.68 0 1.36 0 0 Z " fill="#FEFEFE" transform="translate(180,173)"/>
<path d="M0 0 C1.65 0.33 3.3 0.66 5 1 C5.33 2.65 5.66 4.3 6 6 C3.6875 6.6875 3.6875 6.6875 1 7 C-0.8125 5.5625 -0.8125 5.5625 -2 4 C-1.34 3.34 -0.68 2.68 0 2 C0 1.34 0 0.68 0 0 Z " fill="#E8F1EF" transform="translate(167,138)"/>
<path d="M0 0 C1.98 0 3.96 0 6 0 C6 3 6 3 4.6875 4.6875 C3 6 3 6 0 6 C0 4.02 0 2.04 0 0 Z " fill="#F3EBEF" transform="translate(125,125)"/>
<path d="M0 0 C0.625 1.8125 0.625 1.8125 1 4 C0.01 5.485 0.01 5.485 -1 7 C-4.625 7.6875 -4.625 7.6875 -8 8 C-5.33333333 5.33333333 -2.66666667 2.66666667 0 0 Z " fill="#DDEAEE" transform="translate(146,98)"/>
<path d="M0 0 C1.65 0 3.3 0 5 0 C5 1.65 5 3.3 5 5 C3.0625 5.5625 3.0625 5.5625 1 6 C0 5 0 5 -0.0625 2.4375 C-0.041875 1.633125 -0.02125 0.82875 0 0 Z " fill="#E8F1F0" transform="translate(167,70)"/>
<path d="M0 0 C1.98 0 3.96 0 6 0 C6 0.66 6 1.32 6 2 C5.34 2 4.68 2 4 2 C4 3.32 4 4.64 4 6 C2.68 6 1.36 6 0 6 C0 4.02 0 2.04 0 0 Z " fill="#E7F3EA" transform="translate(202,49)"/>
<path d="M0 0 C0.99 0.33 1.98 0.66 3 1 C-0.63 4.3 -4.26 7.6 -8 11 C-8.33 10.01 -8.66 9.02 -9 8 C-8.34 8 -7.68 8 -7 8 C-7 7.34 -7 6.68 -7 6 C-5.57421875 4.45703125 -5.57421875 4.45703125 -3.6875 2.8125 C-3.07261719 2.26207031 -2.45773438 1.71164063 -1.82421875 1.14453125 C-1.22222656 0.76683594 -0.62023437 0.38914062 0 0 Z " fill="#FDE2C9" transform="translate(139,123)"/>
<path d="M0 0 C0.66 0.66 1.32 1.32 2 2 C1.625 4.125 1.625 4.125 1 6 C-0.65 6 -2.3 6 -4 6 C-4 5.01 -4 4.02 -4 3 C-2 1.3125 -2 1.3125 0 0 Z " fill="#E3EBEE" transform="translate(123,118)"/>
<path d="M0 0 C1.65 0.33 3.3 0.66 5 1 C4.67 1.99 4.34 2.98 4 4 C3.34 4 2.68 4 2 4 C2 4.66 2 5.32 2 6 C1.01 6.33 0.02 6.66 -1 7 C-1.625 5.1875 -1.625 5.1875 -2 3 C-1.34 2.01 -0.68 1.02 0 0 Z " fill="#ECEFEF" transform="translate(203,104)"/>
<path d="M0 0 C1.32 0.33 2.64 0.66 4 1 C1.03 3.64 -1.94 6.28 -5 9 C-5.33 8.01 -5.66 7.02 -6 6 C-5.34 6 -4.68 6 -4 6 C-3.896875 5.38125 -3.79375 4.7625 -3.6875 4.125 C-3 2 -3 2 0 0 Z " fill="#FBDFC7" transform="translate(162,102)"/>
<path d="M0 0 C1.4606285 2.64738916 2 3.89448334 2 7 C2.99 7.33 3.98 7.66 5 8 C0.545 8.495 0.545 8.495 -4 9 C-3.525625 8.443125 -3.05125 7.88625 -2.5625 7.3125 C-0.87604004 4.81653926 -0.41046893 2.9553763 0 0 Z " fill="#D3E2E5" transform="translate(151,89)"/>
<path d="M0 0 C0.33 1.32 0.66 2.64 1 4 C0.01 4.33 -0.98 4.66 -2 5 C-2.33 5.99 -2.66 6.98 -3 8 C-4.65 8.33 -6.3 8.66 -8 9 C-7.04270084 7.87411986 -6.08412105 6.7493285 -5.125 5.625 C-4.59132812 4.99851562 -4.05765625 4.37203125 -3.5078125 3.7265625 C-2.38567993 2.44163349 -1.20628025 1.20628025 0 0 Z " fill="#D26A3C" transform="translate(179,89)"/>
<path d="M0 0 C2.40575607 2.18517099 3.79535581 4.25919671 5.1875 7.1875 C5.53167969 7.90292969 5.87585938 8.61835937 6.23046875 9.35546875 C6.48441406 9.89816406 6.73835937 10.44085938 7 11 C3.54992999 9.84997666 2.23206431 8.84780619 0 6 C-0.25 2.75 -0.25 2.75 0 0 Z " fill="#F8DCC6" transform="translate(172,70)"/>
<path d="M0 0 C-0.33 1.65 -0.66 3.3 -1 5 C-2.65 5 -4.3 5 -6 5 C-6.33 4.34 -6.66 3.68 -7 3 C-5.40442685 -0.19114631 -3.35905282 0 0 0 Z " fill="#E9F5E9" transform="translate(215,99)"/>
<path d="M0 0 C1.98 0.99 1.98 0.99 4 2 C4 3.32 4 4.64 4 6 C4.66 6 5.32 6 6 6 C6 6.99 6 7.98 6 9 C5.01 9 4.02 9 3 9 C2.67 7.35 2.34 5.7 2 4 C1.34 4 0.68 4 0 4 C0 2.68 0 1.36 0 0 Z " fill="#F1F0E9" transform="translate(218,90)"/>
<path d="M0 0 C1.2065625 0.0309375 1.2065625 0.0309375 2.4375 0.0625 C2.4375 1.3825 2.4375 2.7025 2.4375 4.0625 C0.7875 4.3925 -0.8625 4.7225 -2.5625 5.0625 C-3.125 3.125 -3.125 3.125 -3.5625 1.0625 C-2.5625 0.0625 -2.5625 0.0625 0 0 Z " fill="#EFEEED" transform="translate(156.5625,27.9375)"/>
<path d="M0 0 C1.65 0 3.3 0 5 0 C5.33 1.32 5.66 2.64 6 4 C3.69 4 1.38 4 -1 4 C-0.67 2.68 -0.34 1.36 0 0 Z " fill="#EDEDED" transform="translate(22,173)"/>
<path d="M0 0 C1.64826111 2.96687001 2.44271087 5.65626525 3 9 C0.03 8.505 0.03 8.505 -3 8 C-2.67 7.01 -2.34 6.02 -2 5 C-1.34 5 -0.68 5 0 5 C0 3.35 0 1.7 0 0 Z " fill="#E15418" transform="translate(183,83)"/>
<path d="M0 0 C0.99 0 1.98 0 3 0 C3 2.64 3 5.28 3 8 C1.68 7.67 0.36 7.34 -1 7 C-0.67 4.69 -0.34 2.38 0 0 Z " fill="#FCF9FE" transform="translate(198,48)"/>
<path d="M0 0 C1.74627478 2.61941217 2.38722388 4.03824877 3 7 C2.01 7.495 2.01 7.495 1 8 C-0.32 6.68 -1.64 5.36 -3 4 C-2.67 3.01 -2.34 2.02 -2 1 C-1.34 0.67 -0.68 0.34 0 0 Z " fill="#F34E05" transform="translate(137,132)"/>
<path d="M0 0 C0.99 0.495 0.99 0.495 2 1 C2 1.66 2 2.32 2 3 C3.32 3.33 4.64 3.66 6 4 C1.125 8 1.125 8 0 8 C0 5.36 0 2.72 0 0 Z " fill="#D8571D" transform="translate(192,104)"/>
<path d="M0 0 C0.66 0.33 1.32 0.66 2 1 C1.67 2.65 1.34 4.3 1 6 C-0.32 6 -1.64 6 -3 6 C-3 4.35 -3 2.7 -3 1 C-2.01 0.67 -1.02 0.34 0 0 Z " fill="#EBEDE7" transform="translate(163,62)"/>
<path d="M0 0 C2.31 0.33 4.62 0.66 7 1 C7.33 2.65 7.66 4.3 8 6 C7.01 6.495 7.01 6.495 6 7 C5.38125 6.21625 4.7625 5.4325 4.125 4.625 C2.10141339 2.03162353 2.10141339 2.03162353 0 0 Z " fill="#DEEAEE" transform="translate(117,33)"/>
<path d="M0 0 C0.99 0.33 1.98 0.66 3 1 C5.39254576 1.22560676 7.78928123 1.40848595 10.1875 1.5625 C12.09595703 1.68818359 12.09595703 1.68818359 14.04296875 1.81640625 C15.01878906 1.87699219 15.99460938 1.93757812 17 2 C17 2.33 17 2.66 17 3 C11.06 3 5.12 3 -1 3 C-0.67 2.01 -0.34 1.02 0 0 Z " fill="#FDE5D4" transform="translate(127,142)"/>
<path d="M0 0 C2.1328125 0.39453125 2.1328125 0.39453125 4 1 C2.71372289 2.17260611 1.42080217 3.3379283 0.125 4.5 C-0.59429687 5.1496875 -1.31359375 5.799375 -2.0546875 6.46875 C-4 8 -4 8 -6 8 C-4.56036361 4.64084842 -2.87583411 2.28375062 0 0 Z " fill="#FBE2C8" transform="translate(152,111)"/>
<path d="M0 0 C3.00617269 3.00617269 2.59585316 5.82381598 3 10 C0.9754262 8.06745228 -0.42105792 6.36841312 -2 4 C-2 3.01 -2 2.02 -2 1 C-1.34 0.67 -0.68 0.34 0 0 Z " fill="#1F3845" transform="translate(116,74)"/>
<path d="M0 0 C2.475 0.99 2.475 0.99 5 2 C4.01 3.485 4.01 3.485 3 5 C3 5.99 3 6.98 3 8 C2.67 7.34 2.34 6.68 2 6 C0.0745356 4.8509288 0.0745356 4.8509288 -2 5 C-1.34 3.35 -0.68 1.7 0 0 Z " fill="#264455" transform="translate(130,56)"/>
<path d="M0 0 C1.65 0.33 3.3 0.66 5 1 C5 1.99 5 2.98 5 4 C3.02 4 1.04 4 -1 4 C-0.67 2.68 -0.34 1.36 0 0 Z " fill="#FDFDFD" transform="translate(237,173)"/>
<path d="M0 0 C1.32 0 2.64 0 4 0 C4 1.32 4 2.64 4 4 C1.69 4 -0.62 4 -3 4 C-1.75 2 -1.75 2 0 0 Z " fill="#FDFDFD" transform="translate(72,173)"/>
<path d="M0 0 C1.65 0.33 3.3 0.66 5 1 C5 1.99 5 2.98 5 4 C3.02 4 1.04 4 -1 4 C-0.67 2.68 -0.34 1.36 0 0 Z " fill="#FDFDFD" transform="translate(29,173)"/>
<path d="M0 0 C0.99 0.33 1.98 0.66 3 1 C2.34 1.66 1.68 2.32 1 3 C1.33 3.99 1.66 4.98 2 6 C0.02 6 -1.96 6 -4 6 C-2.84826645 3.53199953 -1.95216435 1.95216435 0 0 Z " fill="#DCE8EB" transform="translate(109,129)"/>
<path d="M0 0 C0.33 1.32 0.66 2.64 1 4 C0.01 4.33 -0.98 4.66 -2 5 C-3.66710346 6.49985609 -3.66710346 6.49985609 -5 8 C-5.99 7.67 -6.98 7.34 -8 7 C-5.36 4.69 -2.72 2.38 0 0 Z " fill="#2B4554" transform="translate(78,124)"/>
<path d="M0 0 C2.00720923 0.28674418 4.0085944 0.61866701 6 1 C6.33 1.99 6.66 2.98 7 4 C6.01 4.66 5.02 5.32 4 6 C2.35 4.35 0.7 2.7 -1 1 C-0.67 0.67 -0.34 0.34 0 0 Z " fill="#28455B" transform="translate(89,114)"/>
<path d="M0 0 C2.46800047 1.15173355 4.04783565 2.04783565 6 4 C5.625 6.625 5.625 6.625 5 9 C2.67527795 6.14693203 1.2491742 3.45925163 0 0 Z " fill="#D16127" transform="translate(175,73)"/>
<path d="M0 0 C1 3 1 3 0 6 C-1.32 5.67 -2.64 5.34 -4 5 C-3.67 4.34 -3.34 3.68 -3 3 C-3.66 2.67 -4.32 2.34 -5 2 C-3.35 1.34 -1.7 0.68 0 0 Z " fill="#ECEDED" transform="translate(200,111)"/>
<path d="M0 0 C0.66 0 1.32 0 2 0 C2 1.32 2 2.64 2 4 C2.66 4 3.32 4 4 4 C4 4.99 4 5.98 4 7 C2.35 7 0.7 7 -1 7 C-0.67 4.69 -0.34 2.38 0 0 Z " fill="#E8F4FA" transform="translate(216,90)"/>
<path d="M0 0 C1.8125 0.125 1.8125 0.125 4 1 C5.75 4.0625 5.75 4.0625 7 7 C5.68 6.67 4.36 6.34 3 6 C2.87625 5.195625 2.7525 4.39125 2.625 3.5625 C2.315625 2.2940625 2.315625 2.2940625 2 1 C1.34 0.67 0.68 0.34 0 0 Z " fill="#EBF1ED" transform="translate(150,41)"/>
<path d="M0 0 C1 3 1 3 0.0625 5.1875 C-0.4634375 6.0846875 -0.4634375 6.0846875 -1 7 C-1.99 6.67 -2.98 6.34 -4 6 C-3.67 4.68 -3.34 3.36 -3 2 C-2.01 2 -1.02 2 0 2 C0 1.34 0 0.68 0 0 Z " fill="#F0F0F0" transform="translate(132,150)"/>
<path d="M0 0 C0.268125 0.61875 0.53625 1.2375 0.8125 1.875 C1.95556848 4.2995233 1.95556848 4.2995233 5 6 C5 6.66 5 7.32 5 8 C2.5625 7.3125 2.5625 7.3125 0 6 C-0.875 3.4375 -0.875 3.4375 -1 1 C-0.67 0.67 -0.34 0.34 0 0 Z " fill="#CB6F48" transform="translate(127,136)"/>
<path d="M0 0 C1.67542976 0.28604898 3.34385343 0.61781233 5 1 C3.35 2.65 1.7 4.3 0 6 C-0.38218767 4.34385343 -0.71395102 2.67542976 -1 1 C-0.67 0.67 -0.34 0.34 0 0 Z " fill="#2A4758" transform="translate(102,130)"/>
<path d="M0 0 C0.66 0.33 1.32 0.66 2 1 C2 2.32 2 3.64 2 5 C1.01 5.33 0.02 5.66 -1 6 C-1.66 5.67 -2.32 5.34 -3 5 C-3 4.01 -3 3.02 -3 2 C-2.01 1.34 -1.02 0.68 0 0 Z " fill="#DD5623" transform="translate(149,117)"/>
<path d="M0 0 C1.65 0 3.3 0 5 0 C4.625 2.4375 4.625 2.4375 4 5 C3.01 5.495 3.01 5.495 2 6 C1.34 4.02 0.68 2.04 0 0 Z " fill="#DBE7E7" transform="translate(145,76)"/>
<path d="M0 0 C0.99 0 1.98 0 3 0 C6.125 6.625 6.125 6.625 5 10 C3.35 6.7 1.7 3.4 0 0 Z " fill="#FBD5BF" transform="translate(196,56)"/>
<path d="M0 0 C1.32 0.33 2.64 0.66 4 1 C5.046875 2.84765625 5.046875 2.84765625 5.75 5.0625 C5.99234375 5.79597656 6.2346875 6.52945313 6.484375 7.28515625 C6.65453125 7.85105469 6.8246875 8.41695312 7 9 C6.01 9.495 6.01 9.495 5 10 C3.35 6.7 1.7 3.4 0 0 Z " fill="#FDEAD6" transform="translate(189,44)"/>
<path d="M0 0 C5.09659478 2.54829739 5.10871914 3.89354167 7 9 C6.01 9.495 6.01 9.495 5 10 C3.35 6.7 1.7 3.4 0 0 Z " fill="#FDE9DC" transform="translate(183,34)"/>
<path d="M0 0 C1.32 0.99 2.64 1.98 4 3 C3.67 3.99 3.34 4.98 3 6 C-0.465 4.02 -0.465 4.02 -4 2 C-2.68 1.34 -1.36 0.68 0 0 Z " fill="#1E3845" transform="translate(119,35)"/>
<path d="M0 0 C0.99 0.33 1.98 0.66 3 1 C3 2.32 3 3.64 3 5 C1.02 5 -0.96 5 -3 5 C-2.01 3.35 -1.02 1.7 0 0 Z " fill="#F5F2EF" transform="translate(101,140)"/>
<path d="M0 0 C1.65 0.33 3.3 0.66 5 1 C4.01 1.33 3.02 1.66 2 2 C2 2.66 2 3.32 2 4 C2.66 4.66 3.32 5.32 4 6 C2.68 6 1.36 6 0 6 C0 5.34 0 4.68 0 4 C-0.66 4 -1.32 4 -2 4 C-2 3.34 -2 2.68 -2 2 C-1.34 2 -0.68 2 0 2 C0 1.34 0 0.68 0 0 Z " fill="#254958" transform="translate(84,137)"/>
<path d="M0 0 C0 1.65 0 3.3 0 5 C-1.65 4.67 -3.3 4.34 -5 4 C-4.67 3.01 -4.34 2.02 -4 1 C-2 0 -2 0 0 0 Z " fill="#FDFCFA" transform="translate(180,126)"/>
<path d="M0 0 C2.74277578 3.19990508 4.6302836 6.00499382 6 10 C3.54896452 9.01958581 2.23241214 8.3486182 0.75 6.125 C0 4 0 4 0 0 Z " fill="#D26832" transform="translate(186,40)"/>
<path d="M0 0 C4.42857143 5.14285714 4.42857143 5.14285714 5 9 C2 8 2 8 0.8125 6.1875 C0 4 0 4 0 0 Z " fill="#FCDBC6" transform="translate(154,39)"/>
<path d="M0 0 C2.97 0.495 2.97 0.495 6 1 C6 1.66 6 2.32 6 3 C1.25 4.125 1.25 4.125 -1 3 C-0.67 2.01 -0.34 1.02 0 0 Z " fill="#2E4452" transform="translate(113,33)"/>
<path d="M0 0 C0.66 0.33 1.32 0.66 2 1 C1.67 1.66 1.34 2.32 1 3 C1.66 3.33 2.32 3.66 3 4 C2.01 4.99 1.02 5.98 0 7 C-0.33 6.01 -0.66 5.02 -1 4 C-1.66 3.67 -2.32 3.34 -3 3 C-2.01 2.01 -1.02 1.02 0 0 Z " fill="#DDE8E6" transform="translate(115,124)"/>
<path d="M0 0 C0.66 0.33 1.32 0.66 2 1 C1.34 2.98 0.68 4.96 0 7 C-1.32 6.01 -2.64 5.02 -4 4 C-2.68 2.68 -1.36 1.36 0 0 Z " fill="#DBE5E9" transform="translate(128,113)"/>
<path d="M0 0 C1.32 0 2.64 0 4 0 C4.66 2.31 5.32 4.62 6 7 C5.01 7.495 5.01 7.495 4 8 C2.68 5.36 1.36 2.72 0 0 Z " fill="#DDEAF0" transform="translate(125,42)"/>
<path d="M0 0 C0 1.32 0 2.64 0 4 C-1.98 4 -3.96 4 -6 4 C-5.67 3.01 -5.34 2.02 -5 1 C-2 0 -2 0 0 0 Z " fill="#FEFEFE" transform="translate(228,173)"/>
<path d="M0 0 C-1.375 1.5 -1.375 1.5 -3 3 C-3.66 3 -4.32 3 -5 3 C-5 2.34 -5 1.68 -5 1 C-6.65 1 -8.3 1 -10 1 C-10 0.67 -10 0.34 -10 0 C-2.25 -1.125 -2.25 -1.125 0 0 Z " fill="#D7E2E9" transform="translate(90,143)"/>
<path d="M0 0 C1.98 0.495 1.98 0.495 4 1 C2.625 3 2.625 3 1 5 C0.34 5 -0.32 5 -1 5 C-0.67 3.35 -0.34 1.7 0 0 Z " fill="#FAFDFA" transform="translate(133,124)"/>
<path d="M0 0 C0.99 0 1.98 0 3 0 C2.67 1.98 2.34 3.96 2 6 C1.34 6 0.68 6 0 6 C-0.38218767 4.34385343 -0.71395102 2.67542976 -1 1 C-0.67 0.67 -0.34 0.34 0 0 Z " fill="#F7FCFC" transform="translate(160,56)"/>
</svg>
