<?xml version="1.0" encoding="UTF-8"?>
<svg version="1.1" xmlns="http://www.w3.org/2000/svg" width="301" height="167">
<path d="M0 0 C99.33 0 198.66 0 301 0 C301 55.11 301 110.22 301 167 C201.67 167 102.34 167 0 167 C0 111.89 0 56.78 0 0 Z " fill="#685B5B" transform="translate(0,0)"/>
<path d="M0 0 C99.33 0 198.66 0 301 0 C301 26.73 301 53.46 301 81 C201.67 81 102.34 81 0 81 C0 54.27 0 27.54 0 0 Z " fill="#7B7B7B" transform="translate(0,86)"/>
<path d="M0 0 C99.33 0 198.66 0 301 0 C301 13.2 301 26.4 301 40 C201.67 40 102.34 40 0 40 C0 26.8 0 13.6 0 0 Z " fill="#535050" transform="translate(0,86)"/>
<path d="M0 0 C99.33 0 198.66 0 301 0 C301 6.93 301 13.86 301 21 C201.67 21 102.34 21 0 21 C0 14.07 0 7.14 0 0 Z " fill="#675A5A" transform="translate(0,0)"/>
<path d="M0 0 C99.33 0 198.66 0 301 0 C301 5.61 301 11.22 301 17 C201.67 17 102.34 17 0 17 C0 11.39 0 5.78 0 0 Z " fill="#6F6B6A" transform="translate(0,86)"/>
<path d="M0 0 C99.33 0 198.66 0 301 0 C301 3.63 301 7.26 301 11 C277.64597871 11.20725888 254.29182729 11.39331652 230.9375 11.5625 C229.62085436 11.57207426 229.62085436 11.57207426 228.27760983 11.58184195 C172.72233927 11.98438312 117.17996358 12.01593859 61.625 11.5625 C60.83778738 11.55610205 60.05057475 11.5497041 59.2395072 11.54311228 C39.49280363 11.38223366 19.74632671 11.20215232 0 11 C0 7.37 0 3.74 0 0 Z " fill="#564344" transform="translate(0,21)"/>
<path d="M0 0 C99.33 0 198.66 0 301 0 C301 2.31 301 4.62 301 7 C201.67 7 102.34 7 0 7 C0 4.69 0 2.38 0 0 Z " fill="#777575" transform="translate(0,119)"/>
<path d="M0 0 C99.33 0 198.66 0 301 0 C301 2.31 301 4.62 301 7 C201.67 7 102.34 7 0 7 C0 4.69 0 2.38 0 0 Z " fill="#6D605A" transform="translate(0,0)"/>
<path d="M0 0 C99.33 0 198.66 0 301 0 C301 2.31 301 4.62 301 7 C201.67 7 102.34 7 0 7 C0 4.69 0 2.38 0 0 Z " fill="#645353" transform="translate(0,54)"/>
<path d="M0 0 C99.33 0 198.66 0 301 0 C301 2.31 301 4.62 301 7 C201.67 7 102.34 7 0 7 C0 4.69 0 2.38 0 0 Z " fill="#767373" transform="translate(0,112)"/>
<path d="M0 0 C99.33 0 198.66 0 301 0 C301 2.31 301 4.62 301 7 C201.67 7 102.34 7 0 7 C0 4.69 0 2.38 0 0 Z " fill="#736F6F" transform="translate(0,96)"/>
<path d="M0 0 C99.33 0 198.66 0 301 0 C301 1.65 301 3.3 301 5 C201.67 5 102.34 5 0 5 C0 3.35 0 1.7 0 0 Z " fill="#554944" transform="translate(0,7)"/>
<path d="M0 0 C99.33 0 198.66 0 301 0 C301 1.65 301 3.3 301 5 C201.67 5 102.34 5 0 5 C0 3.35 0 1.7 0 0 Z " fill="#7F7171" transform="translate(0,32)"/>
<path d="M0 0 C6.90050073 0.06220492 13.80102303 0.12185135 20.70154732 0.18137598 C34.80931417 0.30312363 48.91705398 0.42779129 63.02477604 0.55461836 C63.02477604 1.54461836 63.02477604 2.53461836 63.02477604 3.55461836 C-36.30522396 3.55461836 -135.63522396 3.55461836 -237.97522396 3.55461836 C-237.97522396 2.56461836 -237.97522396 1.57461836 -237.97522396 0.55461836 C-221.61084515 0.4218293 -205.24644938 0.29138668 -188.88203186 0.16346693 C-181.27742638 0.10397196 -173.67282757 0.04379826 -166.06824154 -0.01813555 C-110.70563277 -0.46822021 -55.36313968 -0.49973178 0 0 Z " fill="#534F4E" transform="translate(237.97522395849228,92.44538164138794)"/>
<path d="M0 0 C1.29598201 0.00959692 1.29598201 0.00959692 2.61814547 0.01938772 C24.53725875 0.18206136 46.45619913 0.36201993 68.375 0.5625 C68.375 1.5525 68.375 2.5425 68.375 3.5625 C46.33350375 3.77175821 24.29184523 3.95679482 2.25 4.125 C1.41691614 4.13138284 0.58383227 4.13776568 -0.27449656 4.14434195 C-55.87482844 4.56873503 -111.46226635 4.55428157 -167.0625 4.125 C-167.89449826 4.11860205 -168.72649652 4.1122041 -169.58370686 4.10561228 C-190.59764735 3.94364622 -211.61139888 3.76391172 -232.625 3.5625 C-232.625 2.5725 -232.625 1.5825 -232.625 0.5625 C-211.52101974 0.35215763 -190.41686128 0.16743989 -169.3125 0 C-168.51133035 -0.00638284 -167.71016069 -0.01276568 -166.88471317 -0.01934195 C-111.25227285 -0.46082931 -55.63249041 -0.41356522 0 0 Z " fill="#534F4F" transform="translate(232.625,108.4375)"/>
<path d="M0 0 C0 0.99 0 1.98 0 3 C-64.12039373 3.93958177 -128.21271709 4.02660593 -192.33795536 3.62664449 C-204.24049693 3.55272615 -216.14308423 3.48793866 -228.04568064 3.42356598 C-252.36384572 3.29185966 -276.68194009 3.14980487 -301 3 C-301 2.01 -301 1.02 -301 0 C-275.48639582 -0.1571697 -249.97275033 -0.30497806 -224.45903492 -0.4429636 C-212.60034771 -0.507295 -200.741688 -0.5742288 -188.88305664 -0.64819336 C-125.90976778 -1.03919707 -62.96836709 -0.92270066 0 0 Z " fill="#453838" transform="translate(301,61)"/>
<path d="M0 0 C99.33 0 198.66 0 301 0 C301 0.99 301 1.98 301 3 C285.87816364 3.13320803 270.75630488 3.26364252 255.63441944 3.39115143 C248.60612206 3.45047296 241.57783327 3.51057489 234.54956055 3.57275391 C178.19779926 4.07027641 121.86133473 4.04449198 65.50976306 3.55461836 C58.33590583 3.49234104 51.16202701 3.43272989 43.98814619 3.37324238 C29.32540691 3.25160084 14.6626945 3.12692726 0 3 C0 2.01 0 1.02 0 0 Z " fill="#463D3D" transform="translate(0,37)"/>
<path d="M0 0 C99.33 0 198.66 0 301 0 C301 0.99 301 1.98 301 3 C201.67 3 102.34 3 0 3 C0 2.01 0 1.02 0 0 Z " fill="#A1A0A0" transform="translate(0,126)"/>
<path d="M0 0 C99.33 0 198.66 0 301 0 C301 0.99 301 1.98 301 3 C201.67 3 102.34 3 0 3 C0 2.01 0 1.02 0 0 Z " fill="#4F4D4D" transform="translate(0,119)"/>
<path d="M0 0 C99.33 0 198.66 0 301 0 C301 0.99 301 1.98 301 3 C201.67 3 102.34 3 0 3 C0 2.01 0 1.02 0 0 Z " fill="#989391" transform="translate(0,86)"/>
<path d="M0 0 C99.33 0 198.66 0 301 0 C301 0.99 301 1.98 301 3 C201.67 3 102.34 3 0 3 C0 2.01 0 1.02 0 0 Z " fill="#9B9392" transform="translate(0,12)"/>
<path d="M0 0 C99.33 0 198.66 0 301 0 C301 0.99 301 1.98 301 3 C201.67 3 102.34 3 0 3 C0 2.01 0 1.02 0 0 Z " fill="#9A8F86" transform="translate(0,0)"/>
<path d="M0 0 C99.33 0 198.66 0 301 0 C301 0.99 301 1.98 301 3 C201.67 3 102.34 3 0 3 C0 2.01 0 1.02 0 0 Z " fill="#9C9796" transform="translate(0,96)"/>
<path d="M0 0 C99.33 0 198.66 0 301 0 C301 0.99 301 1.98 301 3 C201.67 3 102.34 3 0 3 C0 2.01 0 1.02 0 0 Z " fill="#9F9D9D" transform="translate(0,112)"/>
<path d="M0 0 C99.33 0 198.66 0 301 0 C301 0.99 301 1.98 301 3 C201.67 3 102.34 3 0 3 C0 2.01 0 1.02 0 0 Z " fill="#9C9898" transform="translate(0,106)"/>
<path d="M0 0 C99.33 0 198.66 0 301 0 C301 0.99 301 1.98 301 3 C201.67 3 102.34 3 0 3 C0 2.01 0 1.02 0 0 Z " fill="#887777" transform="translate(0,58)"/>
<path d="M0 0 C61.38 0 122.76 0 186 0 C186 0.99 186 1.98 186 3 C124.06169009 5.446303 61.96121845 3.72832183 0 3 C0 2.01 0 1.02 0 0 Z " fill="#443636" transform="translate(0,47)"/>
<path d="M0 0 C14.31248971 -0.03123312 28.62498064 -0.05119473 42.9375 -0.0625 C44.01340771 -0.06335602 45.08931541 -0.06421204 46.19782639 -0.06509399 C79.98909921 -0.08878553 113.77372361 0.08798702 147.5625 0.5 C148.54371197 0.51195782 149.52492393 0.52391563 150.5358696 0.53623581 C162.35737924 0.68116494 174.17874828 0.83537391 186 1 C186 1.33 186 1.66 186 2 C174.16343245 2.76486229 162.39440666 3.14255467 150.53466797 3.11352539 C148.87686159 3.11324229 147.21905509 3.11340365 145.56124878 3.1139679 C141.1244283 3.11425107 136.68763568 3.10843298 132.25082159 3.10139394 C127.59040314 3.09507951 122.92998383 3.09455028 118.26956177 3.09336853 C109.47282888 3.0902788 100.67610865 3.08209769 91.8793813 3.07201904 C81.85255421 3.06078405 71.82572647 3.05532896 61.79889464 3.05032361 C41.19925608 3.03991271 20.59962884 3.02235965 0 3 C0 2.01 0 1.02 0 0 Z " fill="#807575" transform="translate(0,44)"/>
<path d="M0 0 C13.93748934 -0.03132275 27.87498002 -0.05122429 41.8125 -0.0625 C42.86294117 -0.06335602 43.91338234 -0.06421204 44.99565506 -0.06509399 C78.81256051 -0.08936929 112.62299357 0.09817897 146.4375 0.5 C147.44433964 0.51195782 148.45117928 0.52391563 149.48852921 0.53623581 C161.65914174 0.6816073 173.82962599 0.83589292 186 1 C186 1.33 186 1.66 186 2 C162.98015962 2.78857335 139.9924956 3.14344628 116.95991921 3.10139394 C112.82144116 3.09497324 108.68296164 3.0945423 104.54447937 3.09336853 C96.77183312 3.09030864 88.9992016 3.0821705 81.22656173 3.07201904 C72.35046757 3.06068786 63.47437256 3.05530544 54.59827292 3.05032361 C36.39884038 3.03998078 18.19942139 3.02248955 0 3 C0 2.01 0 1.02 0 0 Z " fill="#7D7373" transform="translate(0,50)"/>
<path d="M0 0 C0.96839813 0.00085602 1.93679626 0.00171204 2.93453979 0.00259399 C14.58138072 0.01368123 26.22819049 0.0332713 37.875 0.0625 C37.875 1.0525 37.875 2.0425 37.875 3.0625 C25.06251115 3.09412692 12.25002269 3.11382224 -0.5625 3.125 C-1.53654156 3.12585602 -2.51058311 3.12671204 -3.51414108 3.12759399 C-37.40790563 3.15380061 -71.2958801 2.93663922 -105.1875 2.5625 C-106.27122265 2.55054218 -107.3549453 2.53858437 -108.47150803 2.52626419 C-121.68943599 2.37969229 -134.90726136 2.22523058 -148.125 2.0625 C-148.125 1.7325 -148.125 1.4025 -148.125 1.0625 C-133.62510304 0.8865345 -119.12510253 0.72062476 -104.625 0.5625 C-103.53635902 0.55062275 -102.44771805 0.5387455 -101.32608795 0.52650833 C-67.55017362 0.16083674 -33.77789822 -0.03007827 0 0 Z " fill="#462727" transform="translate(148.125,41.9375)"/>
</svg>
