<?xml version="1.0" standalone="no"?>
<!DOCTYPE svg PUBLIC "-//W3C//DTD SVG 20010904//EN"
 "http://www.w3.org/TR/2001/REC-SVG-20010904/DTD/svg10.dtd">
<svg version="1.0" xmlns="http://www.w3.org/2000/svg"
 width="301.000000pt" height="167.000000pt" viewBox="0 0 301.000000 167.000000"
 preserveAspectRatio="xMidYMid meet">

<g transform="translate(0.000000,167.000000) scale(0.100000,-0.100000)"
fill="#000000" stroke="none">
<path d="M1552 1370 c-7 -11 -22 -20 -34 -20 -20 0 -20 -1 -5 -18 10 -10 17
-29 17 -41 0 -19 3 -20 20 -11 14 8 26 7 41 -1 20 -10 21 -9 16 12 -4 15 0 30
10 41 15 17 15 18 -4 18 -11 0 -27 9 -34 20 l-14 21 -13 -21z"/>
<path d="M1405 1318 c-4 -10 -13 -18 -20 -18 -10 0 -11 -5 -2 -24 7 -13 20
-23 32 -23 12 0 25 10 32 23 9 19 8 24 -2 24 -8 0 -18 8 -24 18 -9 16 -10 16
-16 0z"/>
<path d="M1715 1318 c-4 -10 -14 -18 -22 -18 -12 0 -13 -3 -4 -14 6 -7 9 -20
6 -27 -4 -10 3 -14 25 -14 20 0 30 5 30 16 0 8 5 20 12 27 9 9 8 12 -5 12 -9
0 -20 8 -26 18 -9 16 -10 16 -16 0z"/>
<path d="M1333 1102 l-223 -127 0 -82 0 -82 -116 -3 -116 -3 56 -77 c31 -42
56 -79 56 -82 0 -4 -22 -37 -48 -74 -27 -37 -52 -73 -56 -79 -6 -10 13 -13 78
-13 l86 0 0 148 0 149 35 10 c20 6 35 7 35 2 0 -5 9 -9 20 -9 18 0 20 7 20 84
l0 85 204 116 205 117 205 -118 206 -118 0 -84 0 -84 25 6 c14 4 36 4 50 0
l25 -6 0 -149 0 -149 81 0 c61 0 78 3 73 13 -4 6 -29 42 -56 79 -26 37 -48 70
-48 73 0 2 25 40 56 82 l56 78 -106 3 -105 3 -3 81 -3 82 -224 128 c-123 70
-228 128 -235 128 -6 0 -111 -58 -233 -128z"/>
<path d="M1303 1007 l-123 -72 0 -77 0 -78 45 0 c42 0 45 2 45 28 0 63 96 200
152 218 17 5 27 55 11 53 -5 0 -63 -33 -130 -72z"/>
<path d="M1700 1056 c0 -16 7 -27 19 -31 55 -17 151 -162 151 -227 0 -15 8
-18 45 -18 l45 0 0 75 0 74 -97 57 c-54 31 -113 66 -130 76 l-33 20 0 -26z"/>
<path d="M1518 939 c-40 -23 -9 -76 37 -65 31 8 35 50 6 66 -23 12 -22 12 -43
-1z"/>
<path d="M1664 915 c-9 -22 9 -37 37 -33 16 2 24 10 24 23 0 26 -52 35 -61 10z"/>
<path d="M1393 843 c-17 -6 -16 -28 1 -42 11 -9 20 -10 35 -1 43 23 10 62 -36
43z"/>
<path d="M1752 818 c2 -12 10 -23 18 -23 22 0 19 39 -3 43 -15 3 -18 -1 -15
-20z"/>
<path d="M1607 793 c-3 -5 13 -9 34 -10 24 -2 38 1 34 7 -7 12 -62 13 -68 3z"/>
<path d="M1070 595 l0 -155 495 0 495 0 0 155 0 155 -495 0 -495 0 0 -155z
m238 73 c30 -30 3 -98 -39 -98 -15 0 -19 -7 -19 -35 0 -28 -4 -35 -20 -35 -19
0 -20 7 -20 90 l0 90 43 0 c24 0 48 -5 55 -12z m120 -75 c-3 -80 -5 -88 -23
-88 -18 0 -20 8 -23 88 l-3 87 26 0 26 0 -3 -87z m162 65 c0 -13 -12 -41 -25
-63 -31 -50 -31 -55 0 -55 18 0 25 -5 25 -20 0 -17 -7 -20 -50 -20 -44 0 -50
3 -50 20 0 12 11 43 25 70 14 27 25 51 25 53 0 2 -10 3 -22 3 -14 -1 -24 6
-26 17 -3 14 4 17 47 17 46 0 51 -2 51 -22z m160 7 c0 -9 -11 -38 -25 -65 -14
-27 -25 -52 -25 -55 0 -3 11 -5 25 -5 18 0 25 -5 25 -20 0 -17 -7 -20 -50 -20
-44 0 -50 3 -50 20 0 12 11 43 25 70 14 27 25 51 25 53 0 2 -10 3 -22 3 -14
-1 -24 6 -26 17 -3 14 4 17 47 17 39 0 51 -4 51 -15z m156 -55 c18 -95 18
-110 -6 -110 -11 0 -20 6 -20 14 0 23 -27 27 -33 4 -3 -12 -12 -18 -22 -16
-20 4 -20 4 -4 101 l13 78 30 -3 c29 -3 31 -6 42 -68z"/>
<path d="M1250 631 c0 -12 6 -21 16 -21 9 0 14 7 12 17 -5 25 -28 28 -28 4z"/>
<path d="M1862 600 c0 -19 2 -27 5 -17 2 9 2 25 0 35 -3 9 -5 1 -5 -18z"/>
<path d="M1181 406 c12 -12 376 -219 385 -219 6 0 97 49 202 109 l191 109 -43
3 c-39 3 -59 -6 -190 -83 -81 -47 -152 -85 -157 -85 -5 0 -76 38 -158 85 -123
71 -155 85 -191 85 -24 0 -41 -2 -39 -4z"/>
<path d="M1320 406 c0 -5 105 -66 114 -66 3 0 6 16 6 35 l0 35 -60 0 c-33 0
-60 -2 -60 -4z"/>
<path d="M1700 372 l0 -32 38 19 c76 40 78 46 17 46 l-55 0 0 -33z"/>
</g>
</svg>
